<?xml version="1.0" encoding="UTF-8"?>
<svg version="1.1" xmlns="http://www.w3.org/2000/svg" width="256" height="256">
<path d="M0 0 C2.32567721 0.00315067 4.65006563 -0.02035554 6.97558594 -0.0456543 C41.46506283 -0.1932978 71.79364072 14.9108492 96.12353516 38.82348633 C118.98884977 62.04595275 130.99943887 93.46469258 130.90844727 125.72290039 C130.9052966 128.0485776 130.92880281 130.37296602 130.95410156 132.69848633 C131.10174507 167.18796322 115.99759806 197.51654111 92.08496094 221.84643555 C68.86249452 244.71175016 37.44375469 256.72233926 5.18554688 256.63134766 C2.85986967 256.62819699 0.53548125 256.6517032 -1.79003906 256.67700195 C-36.27951595 256.82464546 -66.60809385 241.72049845 -90.93798828 217.80786133 C-113.8033029 194.58539491 -125.81389199 163.16665508 -125.72290039 130.90844727 C-125.71974972 128.58277006 -125.74325593 126.25838164 -125.76855469 123.93286133 C-125.91619819 89.44338444 -110.81205119 59.11480654 -86.89941406 34.78491211 C-63.67694764 11.91959749 -32.25820781 -0.0909916 0 0 Z " fill="#FBC603" transform="translate(125.4072265625,-0.315673828125)"/>
<path d="M0 0 C0.99 0 1.98 0 3 0 C3.72316406 -0.02320313 4.44632812 -0.04640625 5.19140625 -0.0703125 C5.97386719 -0.08835938 6.75632812 -0.10640625 7.5625 -0.125 C8.34753906 -0.14820313 9.13257813 -0.17140625 9.94140625 -0.1953125 C12 0 12 0 14 2 C16.91652174 2.16681109 16.91652174 2.16681109 20 2 C26.470391 2 31.439896 6.26578172 35.9375 10.75 C36.618125 11.4925 37.29875 12.235 38 13 C38.99 13.99 38.99 13.99 40 15 C40.12375 16.0725 40.2475 17.145 40.375 18.25 C40.6867258 22.00455674 40.6867258 22.00455674 42.8984375 24.3671875 C46.42919451 29.41428843 46.49448218 35.92994171 47.25 41.875 C47.42273438 43.13570312 47.59546875 44.39640625 47.7734375 45.6953125 C48.19616112 48.79528572 48.6045063 51.89645537 49 55 C49.33 54.01 49.66 53.02 50 52 C51.25 50.3125 51.25 50.3125 53 49 C55.6875 48.8125 55.6875 48.8125 58 49 C61.29292468 54.52319238 60.83208444 61.46229908 59.39453125 67.57421875 C58.6663829 69.75127142 57.85817528 71.87138876 57 74 C56.443125 75.7325 56.443125 75.7325 55.875 77.5 C55 80 55 80 54 81 C52.00041636 81.04080783 49.99954746 81.04254356 48 81 C47.814375 82.7634375 47.814375 82.7634375 47.625 84.5625 C47.13564065 88.54120426 46.1944795 92.17766559 45 96 C44.34 96 43.68 96 43 96 C42.35403926 102.87259868 42.51664065 108.43945947 46.71484375 114.0234375 C49.94599428 117.87776897 53.42969839 121.46174335 57 125 C57.93126709 125.96111694 57.93126709 125.96111694 58.88134766 126.94165039 C59.49284668 127.56934326 60.1043457 128.19703613 60.734375 128.84375 C61.28577148 129.41158203 61.83716797 129.97941406 62.40527344 130.56445312 C64.11292835 132.22965872 64.11292835 132.22965872 67.125 133.5625 C69.89178833 134.94589417 70.78537984 135.72932321 72.625 138.0625 C74.90550488 141.29805273 74.90550488 141.29805273 79 143 C79 146.63 79 150.26 79 154 C80.03898438 154.15855469 81.07796875 154.31710938 82.1484375 154.48046875 C90.51087904 155.84779215 97.65219925 157.53126541 105 162 C96.34733789 181.53539177 69.97605829 195.33020422 51 203 C36.68371399 208.38632543 22.81699361 210.3586172 7.59277344 210.31567383 C5.26709623 210.31252316 2.94270781 210.33602937 0.6171875 210.36132812 C-33.87663291 210.50899022 -64.18535917 195.39701352 -88.53857422 171.50634766 C-92.00940522 167.9288289 -95.05853808 164.01673954 -98 160 C-94.48077695 155.6997729 -90.4585116 154.34249542 -85.375 152.5625 C-84.54629395 152.2624707 -83.71758789 151.96244141 -82.86376953 151.65332031 C-76.18403337 149.28655427 -69.415166 147.3399983 -62.52490234 145.68579102 C-60.65810915 145.21412897 -58.82366474 144.61776114 -57 144 C-56.67 143.01 -56.34 142.02 -56 141 C-54.07421875 139.5 -54.07421875 139.5 -51.6875 138 C-50.12124974 137.00588413 -48.55868263 136.00593971 -47 135 C-46.27425781 134.53335938 -45.54851562 134.06671875 -44.80078125 133.5859375 C-42.63951249 131.68252076 -42.21621051 130.38617998 -41.5 127.625 C-40.28484993 123.64344447 -39.09337278 120.92151874 -36 118 C-34.845 117.5875 -33.69 117.175 -32.5 116.75 C-28.26314339 114.63157169 -27.28816332 113.05381939 -25.66015625 108.7265625 C-23.50829623 99.83899862 -24.43354666 91.88936358 -29 84 C-29.928125 84.103125 -30.85625 84.20625 -31.8125 84.3125 C-35 84 -35 84 -36.75 81.9375 C-38.14088325 78.66892436 -39.09618086 75.43451273 -40 72 C-40.37125 71.0925 -40.7425 70.185 -41.125 69.25 C-42.37812586 64.59553252 -42.72675178 59.78249561 -42 55 C-39 53 -39 53 -36.5 53.25 C-34 54 -34 54 -31 56 C-30.96241577 54.97845825 -30.96241577 54.97845825 -30.92407227 53.9362793 C-30.80809048 50.85316245 -30.68537384 47.77034954 -30.5625 44.6875 C-30.52318359 43.61564453 -30.48386719 42.54378906 -30.44335938 41.43945312 C-30.40146484 40.41142578 -30.35957031 39.38339844 -30.31640625 38.32421875 C-30.27974854 37.37635498 -30.24309082 36.42849121 -30.20532227 35.4519043 C-30 33 -30 33 -29 30 C-28.77223006 27.19927333 -28.6198924 24.39999859 -28.4765625 21.59375 C-27.9352744 18.64772297 -27.23092606 17.89119113 -25 16 C-24.5875 15.21625 -24.175 14.4325 -23.75 13.625 C-20.44327385 8.66491078 -15.05922538 5.97601493 -10 3 C-9.67 2.67 -9.34 2.34 -9 2 C-6.9427083 1.68076508 -4.88386479 1.48838648 -2.8125 1.28125 C-0.9832467 1.18001957 -0.9832467 1.18001957 0 0 Z " fill="#DDA495" transform="translate(123,46)"/>
<path d="M0 0 C1.92763565 2.38440149 3.83188819 4.76984692 5.640625 7.24609375 C11.54123302 15.28065952 18.01235828 21.00579533 28 23 C35.22909566 23.83279182 41.1935472 22.30464103 48 20 C49.32979042 19.65280216 50.66212602 19.3146142 52 19 C48.95704331 22.7589465 44.57474405 24.63057635 39.87133789 25.30541992 C37.59431153 25.43741052 35.34306914 25.45866984 33.0625 25.4375 C32.30259766 25.45748047 31.54269531 25.47746094 30.75976562 25.49804688 C22.42850583 25.49093222 16.71522834 22.11434346 10.6875 16.5 C9.45580078 15.37078125 9.45580078 15.37078125 8.19921875 14.21875 C6.24229124 12.24444303 4.59471571 10.2707926 3 8 C1.08031991 30.2256295 9.98942628 51.56523044 19.92089844 70.89892578 C21.77472323 74.50843169 23.60870546 78.12776402 25.4375 81.75 C25.77950439 82.41749268 26.12150879 83.08498535 26.47387695 83.77270508 C28.04591789 86.88359453 29.14828745 89.59314978 30 93 C27.03 92.67 24.06 92.34 21 92 C21.66 93.32 22.32 94.64 23 96 C27.62 95.67 32.24 95.34 37 95 C37.33 96.98 37.66 98.96 38 101 C39.89262931 100.95483501 39.89262931 100.95483501 42 100 C43.9145595 97.26023501 43.9145595 97.26023501 45.6875 94 C49.29087224 88.26982534 49.29087224 88.26982534 52.484375 87.0546875 C54.9375 86.875 54.9375 86.875 57.21484375 86.9921875 C57.80394531 86.99476563 58.39304688 86.99734375 59 87 C59.33 86.34 59.66 85.68 60 85 C57.93673023 85.08760589 55.8743284 85.19579273 53.8125 85.3125 C52.66394531 85.37050781 51.51539063 85.42851562 50.33203125 85.48828125 C46.82422576 86.02699464 44.89044706 87.00287051 42 89 C41.01 89.495 41.01 89.495 40 90 C40.96065847 87.59835381 41.56252125 86.26492031 43.80859375 84.90478516 C46.0506537 83.97908616 47.91462945 83.68539403 50.3125 83.3984375 C56.24868139 82.14064825 58.7132198 78.45951027 62 73.625 C62.5681543 72.81877197 63.13630859 72.01254395 63.72167969 71.18188477 C67.96421164 64.83136846 69.51681409 59.68043166 69 52 C69.33 51.67 69.66 51.34 70 51 C70.29344514 46.65366055 69.66327016 43.5836208 68.05859375 39.56640625 C65.54213948 32.37701307 65.22772433 25.50323712 65.0625 17.9375 C65.00771484 16.63361328 64.95292969 15.32972656 64.89648438 13.98632812 C64.61585319 4.47933143 64.61585319 4.47933143 66.51342773 2.11157227 C67.00399658 1.74475342 67.49456543 1.37793457 68 1 C67.77376953 2.47146484 67.77376953 2.47146484 67.54296875 3.97265625 C66.86836371 10.4123604 66.70460486 15.74223123 70.6484375 21.15625 C73.86164312 25.01332586 77.38937666 28.51931562 81 32 C82.80542901 33.85054136 84.60917574 35.70258324 86.4074707 37.56005859 C88.11187225 39.23051468 88.11187225 39.23051468 91.125 40.5625 C93.89178833 41.94589417 94.78537984 42.72932321 96.625 45.0625 C98.90550488 48.29805273 98.90550488 48.29805273 103 50 C103 53.63 103 57.26 103 61 C104.03898438 61.15855469 105.07796875 61.31710938 106.1484375 61.48046875 C114.51087904 62.84779215 121.65219925 64.53126541 129 69 C120.34733789 88.53539177 93.97605829 102.33020422 75 110 C60.68371399 115.38632543 46.81699361 117.3586172 31.59277344 117.31567383 C29.26709623 117.31252316 26.94270781 117.33602937 24.6171875 117.36132812 C-9.87663291 117.50899022 -40.18535917 102.39701352 -64.53857422 78.50634766 C-68.00940522 74.9288289 -71.05853808 71.01673954 -74 67 C-70.48077695 62.6997729 -66.4585116 61.34249542 -61.375 59.5625 C-60.54629395 59.2624707 -59.71758789 58.96244141 -58.86376953 58.65332031 C-52.18403337 56.28655427 -45.415166 54.3399983 -38.52490234 52.68579102 C-36.65810915 52.21412897 -34.82366474 51.61776114 -33 51 C-32.67 50.01 -32.34 49.02 -32 48 C-30.07421875 46.5 -30.07421875 46.5 -27.6875 45 C-26.12124974 44.00588413 -24.55868263 43.00593971 -23 42 C-22.27425781 41.53335938 -21.54851562 41.06671875 -20.80078125 40.5859375 C-18.63951249 38.68252076 -18.21621051 37.38617998 -17.5 34.625 C-16.28484993 30.64344447 -15.09337278 27.92151874 -12 25 C-10.845 24.5875 -9.69 24.175 -8.5 23.75 C-4.25926665 21.62963332 -3.37445338 20.06268928 -1.7109375 15.76171875 C-0.37870279 10.58649929 -0.16455226 5.32326546 0 0 Z " fill="#3F494F" transform="translate(99,139)"/>
<path d="M0 0 C0.68132451 1.66072849 1.34742127 3.327767 2 5 C3.30730215 5.71636813 4.64542454 6.37762749 6 7 C12.3146894 11.00245838 21.18127949 17.50421981 23.59399414 24.79492188 C24.07942831 27.43138695 24.19909591 29.96837878 24.28125 32.6484375 C24.33732422 34.28039063 24.33732422 34.28039063 24.39453125 35.9453125 C24.44673828 37.64300781 24.44673828 37.64300781 24.5 39.375 C24.56926785 41.61209512 24.64207299 43.84908407 24.71875 46.0859375 C24.74904297 47.0764209 24.77933594 48.0669043 24.81054688 49.08740234 C25.00729883 52.11221008 25.48867531 55.01421998 26 58 C26.0904281 60.56124289 26.13010017 63.12466634 26.125 65.6875 C26.12886719 67.64236328 26.12886719 67.64236328 26.1328125 69.63671875 C26 73 26 73 25 76 C25.66 76.33 26.32 76.66 27 77 C25.515 77.495 25.515 77.495 24 78 C23.26676204 80.01508358 23.26676204 80.01508358 23 82 C22.67 82 22.34 82 22 82 C21.89977539 81.18321777 21.79955078 80.36643555 21.69628906 79.52490234 C21.23056891 75.8060055 20.74054565 72.09070024 20.25 68.375 C20.09273438 67.08980469 19.93546875 65.80460937 19.7734375 64.48046875 C19.60585937 63.23652344 19.43828125 61.99257812 19.265625 60.7109375 C19.11899414 59.56931152 18.97236328 58.42768555 18.82128906 57.25146484 C17.87872956 53.51989305 16.178767 51.14121078 14 48 C13.87625 46.824375 13.7525 45.64875 13.625 44.4375 C12.91397343 40.52685389 11.77393557 39.48067163 8.61328125 37.1875 C7 36 7 36 4.4375 33.375 C1.94426371 30.94569285 0.22508665 29.31935363 -3 28 C-5.32659128 28.12113312 -7.52901488 28.43105832 -9.81640625 28.87109375 C-12.47270787 29.02790583 -13.68997657 28.24564644 -16 27 C-19.92014656 26.78999215 -23.23685828 26.97368862 -27 28 C-28.35371062 28.12984571 -29.70794141 28.25432114 -31.0625 28.375 C-35.0985595 29.01564437 -35.56509261 29.12238218 -38 32 C-40 33 -42 34 -44 35 C-47.73128426 37.60322158 -49.84156416 40.00689369 -52 44 C-52.495 44.495 -52.495 44.495 -53 45 C-53.20956883 46.78715644 -53.36811616 48.58043769 -53.5 50.375 C-53.73236344 53.52020509 -53.99875969 55.99627907 -55 59 C-55.20527316 61.77403869 -55.3725677 64.53494787 -55.5 67.3125 C-55.73170532 72.28558267 -56.0644357 77.09608377 -57 82 C-57.53625 81.649375 -58.0725 81.29875 -58.625 80.9375 C-61.73274763 79.71075751 -63.79431703 80.27143569 -67 81 C-66.67 80.01 -66.34 79.02 -66 78 C-64.68 78 -63.36 78 -62 78 C-61.97535151 72.60653012 -61.95716469 67.21309275 -61.94506836 61.81958008 C-61.94002769 59.98331125 -61.93319523 58.14704646 -61.92456055 56.31079102 C-61.91248328 53.67723599 -61.90676919 51.04373384 -61.90234375 48.41015625 C-61.89718246 47.58411392 -61.89202118 46.75807159 -61.88670349 45.90699768 C-61.88650795 43.93763632 -61.93795848 41.96838386 -62 40 C-62.33 39.67 -62.66 39.34 -63 39 C-63.12487758 37.19072719 -63.17570846 35.37603893 -63.1875 33.5625 C-63.20167969 32.57378906 -63.21585937 31.58507813 -63.23046875 30.56640625 C-63 28 -63 28 -61 26 C-60.5978125 24.88625 -60.5978125 24.88625 -60.1875 23.75 C-57.10492253 16.61139953 -51.07851972 12.49092781 -45 8 C-44.33097656 7.43667969 -43.66195312 6.87335937 -42.97265625 6.29296875 C-41 5 -41 5 -37 5 C-36.80019531 4.35546875 -36.60039063 3.7109375 -36.39453125 3.046875 C-35 1 -35 1 -32.19921875 0.390625 C-31.04035156 0.34421875 -29.88148437 0.2978125 -28.6875 0.25 C-27.43582031 0.19328125 -26.18414062 0.1365625 -24.89453125 0.078125 C-20.17445896 -0.0165605 -15.46230286 -0.03166689 -10.7421875 0.0625 C-0.37252619 -0.17384556 -0.37252619 -0.17384556 0 0 Z " fill="#412C1F" transform="translate(149,20)"/>
<path d="M0 0 C1 2 1 2 0.640625 4.73046875 C-0.05624782 10.89779318 -0.07998696 14.99737831 3.64453125 20.015625 C6.88305918 23.89053033 10.39955049 27.46409057 14 31 C14.62229492 31.64074463 15.24458984 32.28148926 15.88574219 32.94165039 C16.49708008 33.56934326 17.10841797 34.19703613 17.73828125 34.84375 C18.28911377 35.41158203 18.83994629 35.97941406 19.4074707 36.56445312 C21.11290449 38.23007706 21.11290449 38.23007706 24.125 39.5625 C26.89178833 40.94589417 27.78537984 41.72932321 29.625 44.0625 C31.90550488 47.29805273 31.90550488 47.29805273 36 49 C36 52.63 36 56.26 36 60 C35.01 60 34.02 60 33 60 C33.226875 60.78375 33.45375 61.5675 33.6875 62.375 C34.50713162 71.8827268 29.08923144 81.28600746 24 89 C21.52398016 91.64051067 18.94346037 93.89752831 16 96 C15.01 95.01 15.01 95.01 14 94 C10.70943199 94.19356282 8.28000837 95.33850899 5.4375 96.875 C-4.72094701 102.06793746 -14.85697252 102.41101331 -26 102 C-23.90798003 96.38085458 -21.241019 91.29671718 -17 87 C-14.45386348 86.163588 -12.48840312 85.990145 -9.8203125 86.0625 C-9.21960938 86.041875 -8.61890625 86.02125 -8 86 C-7.67 85.34 -7.34 84.68 -7 84 C-9.06326977 84.08760589 -11.1256716 84.19579273 -13.1875 84.3125 C-14.33605469 84.37050781 -15.48460937 84.42851562 -16.66796875 84.48828125 C-20.17577424 85.02699464 -22.10955294 86.00287051 -25 88 C-25.99 88.495 -25.99 88.495 -27 89 C-26.03934153 86.59835381 -25.43747875 85.26492031 -23.19140625 83.90478516 C-20.9493463 82.97908616 -19.08537055 82.68539403 -16.6875 82.3984375 C-10.75131861 81.14064825 -8.2867802 77.45951027 -5 72.625 C-4.14776855 71.41565796 -4.14776855 71.41565796 -3.27832031 70.18188477 C0.96421164 63.83136846 2.51681409 58.68043166 2 51 C2.33 50.67 2.66 50.34 3 50 C3.29395891 45.65182537 2.66213656 42.58431606 1.0546875 38.56640625 C-1.46408841 31.3735559 -1.73662592 24.50579339 -1.875 16.9375 C-1.92140625 15.63361328 -1.9678125 14.32972656 -2.015625 12.98632812 C-2.27349972 3.41024958 -2.27349972 3.41024958 0 0 Z " fill="#3F484F" transform="translate(166,140)"/>
<path d="M0 0 C2.375 0.5 2.375 0.5 5 2 C5.55292725 2.30631348 6.10585449 2.61262695 6.67553711 2.92822266 C12.12577219 6.3118452 13.57049444 9.81496072 15.1875 15.875 C17.10218012 22.61558759 17.10218012 22.61558759 20.17578125 28.8828125 C22 32 22 32 22 35 C19.80087548 33.94116227 17.86930656 32.90246758 15.90625 31.4375 C11.92067131 29.4661385 8.56308566 29.66945906 4.1875 29.8125 C3.00510742 29.83280273 3.00510742 29.83280273 1.79882812 29.85351562 C-0.13441169 29.88866544 -2.06729682 29.94246639 -4 30 C-4 31.65 -4 33.3 -4 35 C-4.66 35 -5.32 35 -6 35 C-6 35.66 -6 36.32 -6 37 C-6.66 37 -7.32 37 -8 37 C-8 38.32 -8 39.64 -8 41 C-7.34 41 -6.68 41 -6 41 C-6 41.99 -6 42.98 -6 44 C-4.35 44.33 -2.7 44.66 -1 45 C-1.33 45.99 -1.66 46.98 -2 48 C-2.99 47.505 -2.99 47.505 -4 47 C-3.65775391 48.46373047 -3.65775391 48.46373047 -3.30859375 49.95703125 C-3.02113281 51.22933594 -2.73367187 52.50164062 -2.4375 53.8125 C-2.14746094 55.07707031 -1.85742188 56.34164062 -1.55859375 57.64453125 C-1 61 -1 61 -2 64 C-3.89575251 64.02721176 -5.79161979 64.04649136 -7.6875 64.0625 C-9.27111328 64.07990234 -9.27111328 64.07990234 -10.88671875 64.09765625 C-13.72946154 64.00848615 -16.23329523 63.61536166 -19 63 C-19.66 63 -20.32 63 -21 63 C-20.67 62.01 -20.34 61.02 -20 60 C-19.01 59.505 -19.01 59.505 -18 59 C-15.90664422 52.94028589 -15.30009259 47.26168425 -17 41 C-19.20684371 38.22729892 -20.85491112 36.57254444 -24 35 C-24.33 34.01 -24.66 33.02 -25 32 C-30.28 31.67 -35.56 31.34 -41 31 C-41.33 30.01 -41.66 29.02 -42 28 C-40.58511552 25.23760649 -39.19636905 23.19636905 -37 21 C-36.5617303 19.42788418 -36.1719055 17.84199754 -35.8125 16.25 C-34.48033204 11.61753653 -32.8064526 9.1843326 -29.109375 6.15625 C-22.42084311 2.48994363 -15.9074753 2.91561208 -8.5234375 3.22265625 C-4.72947208 2.98290455 -3.09839471 2.07481788 0 0 Z " fill="#E9AFA0" transform="translate(144,47)"/>
<path d="M0 0 C1.66611905 -0.042721 3.33382885 -0.04063832 5 0 C5.495 0.495 5.495 0.495 6 1 C8.0587768 1.27953219 10.11728432 1.44734351 12.1875 1.62109375 C12.785625 1.74613281 13.38375 1.87117188 14 2 C14.495 2.99 14.495 2.99 15 4 C13.35 4.33 11.7 4.66 10 5 C10.66 5.33 11.32 5.66 12 6 C12 8.31 12 10.62 12 13 C12.66 13 13.32 13 14 13 C14.66 11.02 15.32 9.04 16 7 C17.37562854 8.28965176 18.70766393 9.62689293 20 11 C20 11.66 20 12.32 20 13 C19.195625 13.28875 18.39125 13.5775 17.5625 13.875 C14.8673532 14.73262568 14.8673532 14.73262568 14 17 C18.29 16.34 22.58 15.68 27 15 C27.99 17.97 27.99 17.97 29 21 C29.66 21 30.32 21 31 21 C31.2475 21.969375 31.495 22.93875 31.75 23.9375 C32.1625 24.948125 32.575 25.95875 33 27 C35.03243548 27.96877057 35.03243548 27.96877057 37 28 C37 29.98 37 31.96 37 34 C35.25 33.8125 35.25 33.8125 33 33 C32.4225 32.2575 31.845 31.515 31.25 30.75 C28.32484186 27.17480672 25.33485814 24.68366195 21 23 C18.56141412 22.97997877 16.454118 23.26661016 14.078125 23.80078125 C11.45983263 24.05178296 10.28082611 23.2316461 8 22 C4.07985344 21.78999215 0.76314172 21.97368862 -3 23 C-4.35371062 23.12984571 -5.70794141 23.25432114 -7.0625 23.375 C-11.0985595 24.01564437 -11.56509261 24.12238218 -14 27 C-16 28 -18 29 -20 30 C-23.73128426 32.60322158 -25.84156416 35.00689369 -28 39 C-28.495 39.495 -28.495 39.495 -29 40 C-29.20956883 41.78715644 -29.36811616 43.58043769 -29.5 45.375 C-29.73236344 48.52020509 -29.99875969 50.99627907 -31 54 C-31.20527316 56.77403869 -31.3725677 59.53494787 -31.5 62.3125 C-31.73170532 67.28558267 -32.0644357 72.09608377 -33 77 C-33.53625 76.649375 -34.0725 76.29875 -34.625 75.9375 C-37.73274763 74.71075751 -39.79431703 75.27143569 -43 76 C-42.67 75.01 -42.34 74.02 -42 73 C-40.68 73 -39.36 73 -38 73 C-37.97535151 67.60653012 -37.95716469 62.21309275 -37.94506836 56.81958008 C-37.94002769 54.98331125 -37.93319523 53.14704646 -37.92456055 51.31079102 C-37.91248328 48.67723599 -37.90676919 46.04373384 -37.90234375 43.41015625 C-37.89718246 42.58411392 -37.89202118 41.75807159 -37.88670349 40.90699768 C-37.88650795 38.93763632 -37.93795848 36.96838386 -38 35 C-38.33 34.67 -38.66 34.34 -39 34 C-39.07179964 32.48071962 -39.08392007 30.95832518 -39.0625 29.4375 C-39.05347656 28.61121094 -39.04445313 27.78492187 -39.03515625 26.93359375 C-39.02355469 26.29550781 -39.01195313 25.65742187 -39 25 C-37.68 24.67 -36.36 24.34 -35 24 C-35 23.34 -35 22.68 -35 22 C-34.34 22 -33.68 22 -33 22 C-32.731875 21.38125 -32.46375 20.7625 -32.1875 20.125 C-31 18 -31 18 -28 16 C-25.95703125 15.8046875 -25.95703125 15.8046875 -23.8125 15.875 C-21.9253125 15.936875 -21.9253125 15.936875 -20 16 C-20.495 15.54625 -20.99 15.0925 -21.5 14.625 C-23 13 -23 13 -23 11 C-16.375 8.875 -16.375 8.875 -13 10 C-10.85744207 9.61067144 -10.85744207 9.61067144 -9 9 C-9.495 7.515 -9.495 7.515 -10 6 C-6.26512223 6.4979837 -4.18762365 6.87491756 -1 9 C-0.34 8.01 0.32 7.02 1 6 C0.34 5.67 -0.32 5.34 -1 5 C-0.67 3.35 -0.34 1.7 0 0 Z " fill="#291913" transform="translate(125,25)"/>
<path d="M0 0 C2.67306535 0.36633016 3.73573441 0.67126211 5.45703125 2.8125 C5.90433594 3.534375 6.35164063 4.25625 6.8125 5 C9.08963517 8.20294012 9.67189146 8.89063049 13.5625 10.1875 C17.49802606 9.97283494 19.02636279 9.57179435 22 7 C23.54132198 4.72831303 24.74848689 2.45667387 26 0 C26.99 0 27.98 0 29 0 C28.43945339 3.36327963 27.58158962 5.99112219 26 9 C26.56847656 8.7834375 27.13695312 8.566875 27.72265625 8.34375 C32.7242219 6.54018042 36.68962036 5.6610396 42 6 C42.33 4.68 42.66 3.36 43 2 C43.99 2 44.98 2 46 2 C46.32924749 7.37770893 45.65919707 11.35118786 43 16 C42.55914062 16.77085937 42.11828125 17.54171875 41.6640625 18.3359375 C38.27217898 23.44858144 35.66059715 25.52369187 29.625 26.9375 C28.58601563 27.11152344 27.54703125 27.28554687 26.4765625 27.46484375 C25.65929687 27.64144531 24.84203125 27.81804687 24 28 C23.67 28.66 23.34 29.32 23 30 C24.02673828 29.26330078 24.02673828 29.26330078 25.07421875 28.51171875 C28.58973109 26.69529248 30.88278142 26.69341762 34.8125 26.8125 C36.55466797 26.85310547 36.55466797 26.85310547 38.33203125 26.89453125 C39.21246094 26.92933594 40.09289062 26.96414062 41 27 C40.505 28.485 40.505 28.485 40 30 C37.03 30 34.06 30 31 30 C30.34 31.32 29.68 32.64 29 34 C27.81665167 35.76699071 26.60676121 37.51641015 25.375 39.25 C24.74335938 40.14203125 24.11171875 41.0340625 23.4609375 41.953125 C22.97882813 42.62859375 22.49671875 43.3040625 22 44 C20.68 43.67 19.36 43.34 18 43 C18 41.02 18 39.04 18 37 C16.205625 37.495 16.205625 37.495 14.375 38 C10.83397302 38.87897833 7.66669474 39.34920902 4 39 C3.34 38.34 2.68 37.68 2 37 C2 36.01 2 35.02 2 34 C4.97 34.33 7.94 34.66 11 35 C10.46890625 33.9378125 9.9378125 32.875625 9.390625 31.78125 C5.140625 23.28125 5.140625 23.28125 4.08007812 21.15234375 C3.34224861 19.68202164 2.59574376 18.21602922 1.84179688 16.75390625 C-1 11.21064815 -1 11.21064815 -1 9 C1.97 9.495 1.97 9.495 5 10 C4.65221564 6.78299472 4.49927596 5.40849852 1.9375 3.3125 C1.298125 2.879375 0.65875 2.44625 0 2 C0 1.34 0 0.68 0 0 Z " fill="#EBB2A2" transform="translate(118,197)"/>
<path d="M0 0 C0.495 0.99 0.495 0.99 1 2 C1.66 2 2.32 2 3 2 C3 3.32 3 4.64 3 6 C2.01 6 1.02 6 0 6 C0.3403125 7.175625 0.3403125 7.175625 0.6875 8.375 C1.50713162 17.8827268 -3.91076856 27.28600746 -9 35 C-11.47601984 37.64051067 -14.05653963 39.89752831 -17 42 C-17.66 41.34 -18.32 40.68 -19 40 C-22.29056801 40.19356282 -24.71999163 41.33850899 -27.5625 42.875 C-37.72094701 48.06793746 -47.85697252 48.41101331 -59 48 C-56.90900786 42.39371673 -54.30342127 37.2308917 -50 33 C-46.83180575 32.17023484 -44.18993572 32.34899271 -41 33 C-43 35 -43 35 -45.5 35.625 C-48.12219995 36.72415952 -48.12219995 36.72415952 -48.76953125 38.90625 C-49.26211269 40.91910077 -49.63799676 42.95961808 -50 45 C-43.29394698 42.45169985 -38.41293286 39.28133161 -34.375 33.1875 C-33.59125 32.135625 -32.8075 31.08375 -32 30 C-30.68 30 -29.36 30 -28 30 C-26.11658226 28.70005837 -26.11658226 28.70005837 -24.390625 26.8515625 C-23.72192383 26.1802832 -23.05322266 25.50900391 -22.36425781 24.81738281 C-21.66655273 24.09389648 -20.96884766 23.37041016 -20.25 22.625 C-19.53424805 21.89635742 -18.81849609 21.16771484 -18.08105469 20.41699219 C-13.61478673 15.82050048 -9.41988867 11.14994467 -5.578125 6.015625 C-3.8676446 3.83095201 -1.9947274 1.92534558 0 0 Z " fill="#2E3439" transform="translate(199,194)"/>
<path d="M0 0 C0.99 0 1.98 0 3 0 C3.72316406 -0.02320313 4.44632813 -0.04640625 5.19140625 -0.0703125 C5.97386719 -0.08835938 6.75632813 -0.10640625 7.5625 -0.125 C8.34753906 -0.14820313 9.13257813 -0.17140625 9.94140625 -0.1953125 C12 0 12 0 14 2 C16.57061311 2.64767793 16.57061311 2.64767793 19 3 C15.16536649 5.55642234 12.22080711 5.06113376 7.8125 4.875 C-0.25092863 4.70988726 -5.1847328 5.39096346 -11.3125 11.1875 C-13.20773427 14.34622379 -14.21922621 17.37556868 -15.19140625 20.9140625 C-16 23 -16 23 -17.52734375 24.4609375 C-19.47245536 26.49375972 -19.63004524 28.2623348 -20 31 C-18.89140625 30.99097656 -17.7828125 30.98195313 -16.640625 30.97265625 C-5.04016408 31.12168718 -5.04016408 31.12168718 -2.1171875 33.58984375 C-1.125 35.5 -1.125 35.5 0 39 C0.66 39.33 1.32 39.66 2 40 C2 40.99 2 41.98 2 43 C1.01 43.66 0.02 44.32 -1 45 C-1 45.66 -1 46.32 -1 47 C-1.66 47 -2.32 47 -3 47 C-3 46.34 -3 45.68 -3 45 C-4.32 44.67 -5.64 44.34 -7 44 C-7 45.32 -7 46.64 -7 48 C-8.134375 47.979375 -9.26875 47.95875 -10.4375 47.9375 C-13.81575674 47.58422523 -13.81575674 47.58422523 -15 49 C-17.33297433 49.04092937 -19.66705225 49.04241723 -22 49 C-21.65514457 46.1157546 -21.21744593 45.1792182 -18.93359375 43.296875 C-18.10988281 42.78640625 -17.28617188 42.2759375 -16.4375 41.75 C-15.61121094 41.22921875 -14.78492187 40.7084375 -13.93359375 40.171875 C-13.29550781 39.78515625 -12.65742187 39.3984375 -12 39 C-17.10477099 38.479105 -20.79747008 38.39736553 -25.0625 41.5 C-26.031875 42.325 -27.00125 43.15 -28 44 C-30.05184357 38.25176409 -30.06702407 33.76646645 -29.3125 27.75 C-29.23322266 26.94820312 -29.15394531 26.14640625 -29.07226562 25.3203125 C-28.57119303 21.00892525 -28.27082553 18.9954261 -25 16 C-24.5875 15.21625 -24.175 14.4325 -23.75 13.625 C-20.44327385 8.66491078 -15.05922538 5.97601493 -10 3 C-9.67 2.67 -9.34 2.34 -9 2 C-6.9427083 1.68076508 -4.88386479 1.48838648 -2.8125 1.28125 C-0.9832467 1.18001957 -0.9832467 1.18001957 0 0 Z " fill="#DDA495" transform="translate(123,46)"/>
<path d="M0 0 C0.66 0 1.32 0 2 0 C2.495 1.98 2.495 1.98 3 4 C3.99 3.67 4.98 3.34 6 3 C6.99 3.33 7.98 3.66 9 4 C9 4.99 9 5.98 9 7 C10.62600941 6.9129995 12.25089678 6.8048219 13.875 6.6875 C14.77992188 6.62949219 15.68484375 6.57148437 16.6171875 6.51171875 C19.36221601 6.2117961 19.36221601 6.2117961 21 3 C21.66 3 22.32 3 23 3 C23.66 4.98 24.32 6.96 25 9 C25.66 9 26.32 9 27 9 C27.2475 9.969375 27.495 10.93875 27.75 11.9375 C28.36875 13.4534375 28.36875 13.4534375 29 15 C31.03243548 15.96877057 31.03243548 15.96877057 33 16 C33 17.98 33 19.96 33 22 C31.25 21.8125 31.25 21.8125 29 21 C28.4225 20.2575 27.845 19.515 27.25 18.75 C24.32484186 15.17480672 21.33485814 12.68366195 17 11 C14.56141412 10.97997877 12.454118 11.26661016 10.078125 11.80078125 C7.45983263 12.05178296 6.28082611 11.2316461 4 10 C0.07985344 9.78999215 -3.23685828 9.97368862 -7 11 C-8.35371062 11.12984571 -9.70794141 11.25432114 -11.0625 11.375 C-15.0985595 12.01564437 -15.56509261 12.12238218 -18 15 C-19.98320018 16.03291676 -21.98347806 17.0337499 -24 18 C-24.99 18.66 -25.98 19.32 -27 20 C-29.32387947 20.39387788 -31.65793749 20.73486085 -34 21 C-34.625 18.625 -34.625 18.625 -35 16 C-34.34 15.34 -33.68 14.68 -33 14 C-31.68 14 -30.36 14 -29 14 C-29.33 12.35 -29.66 10.7 -30 9 C-30.99 8.67 -31.98 8.34 -33 8 C-33 7.34 -33 6.68 -33 6 C-29.37471432 5.79859524 -27.13498292 6.14223235 -24 8 C-24 8.66 -24 9.32 -24 10 C-23.34 10 -22.68 10 -22 10 C-21.87625 9.38125 -21.7525 8.7625 -21.625 8.125 C-21 6 -21 6 -19 4 C-16 3.6875 -16 3.6875 -13 4 C-12.01 5.485 -12.01 5.485 -11 7 C-10.01 6.67 -9.02 6.34 -8 6 C-7.67 5.01 -7.34 4.02 -7 3 C-7.66 2.67 -8.32 2.34 -9 2 C-6.33333333 2 -3.66666667 2 -1 2 C-0.67 1.34 -0.34 0.68 0 0 Z " fill="#080504" transform="translate(129,37)"/>
<path d="M0 0 C0.33 0 0.66 0 1 0 C1.33 2.64 1.66 5.28 2 8 C2.33 7.01 2.66 6.02 3 5 C4.25 3.3125 4.25 3.3125 6 2 C8.6875 1.8125 8.6875 1.8125 11 2 C14.29292468 7.52319238 13.83208444 14.46229908 12.39453125 20.57421875 C11.6663829 22.75127142 10.85817528 24.87138876 10 27 C9.62875 28.155 9.2575 29.31 8.875 30.5 C8 33 8 33 7 34 C5.00041636 34.04080783 2.99954746 34.04254356 1 34 C0.67 36.64 0.34 39.28 0 42 C-1.485 42.495 -1.485 42.495 -3 43 C-2.98839844 42.37351563 -2.97679687 41.74703125 -2.96484375 41.1015625 C-2.95582031 40.28429687 -2.94679687 39.46703125 -2.9375 38.625 C-2.92009766 37.40683594 -2.92009766 37.40683594 -2.90234375 36.1640625 C-2.85533666 33.95062858 -2.85533666 33.95062858 -4 32 C-3.51761054 30.43332073 -3.03504035 28.86669697 -2.55175781 27.30029297 C-1.35812972 22.32402576 -1.22814793 17.15419839 -0.875 12.0625 C-0.78863281 10.90169922 -0.70226562 9.74089844 -0.61328125 8.54492188 C-0.40232597 5.69702554 -0.19809534 2.84881487 0 0 Z " fill="#D19D8E" transform="translate(170,93)"/>
<path d="M0 0 C0 0.99 0 1.98 0 3 C-2.76223278 5.76223278 -5.20706617 5.57856291 -9 6 C-9.33 7.32 -9.66 8.64 -10 10 C-9.01 10.33 -8.02 10.66 -7 11 C-7 11.66 -7 12.32 -7 13 C-7.66 13.33 -8.32 13.66 -9 14 C-8.505 14.99 -8.505 14.99 -8 16 C-10.49361571 14.79618552 -12.68143083 13.54571278 -15 12 C-15.99 12 -16.98 12 -18 12 C-18 12.66 -18 13.32 -18 14 C-22.625 16.125 -22.625 16.125 -26 15 C-26.33 15.33 -26.66 15.66 -27 16 C-28.66617115 16.04063832 -30.33388095 16.042721 -32 16 C-32 16.66 -32 17.32 -32 18 C-31.01 18.33 -30.02 18.66 -29 19 C-29 19.66 -29 20.32 -29 21 C-32 22 -32 22 -35.5 22.3125 C-39.0566163 22.64165168 -39.0566163 22.64165168 -40.8125 25.0625 C-41.204375 25.701875 -41.59625 26.34125 -42 27 C-42.66 27 -43.32 27 -44 27 C-44 27.66 -44 28.32 -44 29 C-45.32 29.33 -46.64 29.66 -48 30 C-47.71125 29.443125 -47.4225 28.88625 -47.125 28.3125 C-45.95571778 26.02933028 -45.95571778 26.02933028 -45.1875 23.625 C-42.00124031 16.5816891 -36.05409948 12.47288566 -30 8 C-29.33097656 7.43667969 -28.66195312 6.87335937 -27.97265625 6.29296875 C-26 5 -26 5 -22 5 C-21.814375 4.360625 -21.62875 3.72125 -21.4375 3.0625 C-20 1 -20 1 -17.1875 0.25 C-11.4871889 -0.27151782 -5.71703944 -0.07737347 0 0 Z " fill="#452F20" transform="translate(134,20)"/>
<path d="M0 0 C3.42263573 2.92296683 6.83925363 5.85139685 10.21875 8.82421875 C28.94131182 25.57133468 28.94131182 25.57133468 51 37 C52.01691264 38.99145391 53.01642648 40.99187074 54 43 C54.99 43.66 55.98 44.32 57 45 C57 45.66 57 46.32 57 47 C55.68 47 54.36 47 53 47 C52.67 46.01 52.34 45.02 52 44 C49.91895488 42.69434904 49.91895488 42.69434904 47.3125 41.5 C39.80807376 37.60954745 33.50569601 32.33751993 27 27 C32.62203042 34.07063707 38.69464296 39.26258933 47 43 C47 43.33 47 43.66 47 44 C42.89849349 45.15385171 39.52271836 45.80555084 35.64453125 43.75390625 C33.3033762 41.94464873 31.14846392 40.03350921 29 38 C28.40445313 37.49339844 27.80890625 36.98679688 27.1953125 36.46484375 C22.58752511 32.31358829 19.45877701 27.33475946 16.28320312 22.06225586 C13.90372564 18.16201487 11.28745571 15.15369382 8 12 C6.53470398 10.29432383 5.09577491 8.56555031 3.6875 6.8125 C2.64142578 5.52279297 2.64142578 5.52279297 1.57421875 4.20703125 C0 2 0 2 0 0 Z " fill="#2F363C" transform="translate(68,192)"/>
<path d="M0 0 C1 2 1 2 0.640625 4.73046875 C-0.05624782 10.89779318 -0.07998696 14.99737831 3.64453125 20.015625 C6.88305918 23.89053033 10.39955049 27.46409057 14 31 C14.93344238 31.96111694 14.93344238 31.96111694 15.88574219 32.94165039 C16.49708008 33.56934326 17.10841797 34.19703613 17.73828125 34.84375 C18.28911377 35.41158203 18.83994629 35.97941406 19.4074707 36.56445312 C21.11290449 38.23007706 21.11290449 38.23007706 24.125 39.5625 C26.89178833 40.94589417 27.78537984 41.72932321 29.625 44.0625 C31.76177938 46.7053587 32.89382866 47.84956617 36 49 C35.67 51.31 35.34 53.62 35 56 C32 56 32 56 30 55 C30.99 53.35 31.98 51.7 33 50 C32.01 50 31.02 50 30 50 C29.38125 49.030625 28.7625 48.06125 28.125 47.0625 C26.31781611 43.79320392 26.31781611 43.79320392 23.25 43.125 C22.5075 43.08375 21.765 43.0425 21 43 C21 42.34 21 41.68 21 41 C19.515 41.495 19.515 41.495 18 42 C17.71125 42.721875 17.4225 43.44375 17.125 44.1875 C15.66906475 47.82733811 13.59045776 50.06869254 11 53 C10.01 52.67 9.02 52.34 8 52 C8.350625 51.13375 8.70125 50.2675 9.0625 49.375 C10.11688157 45.57922635 9.97500987 43.78753833 9 40 C7.1910902 36.95705621 7.1910902 36.95705621 4.9375 34.125 C4.20402344 33.15820312 3.47054687 32.19140625 2.71484375 31.1953125 C2.14894531 30.47085938 1.58304688 29.74640625 1 29 C0.34 29.99 -0.32 30.98 -1 32 C-1.19252507 27.92539339 -1.37120378 23.85043787 -1.53710938 19.7746582 C-1.59548391 18.38842526 -1.65763024 17.00234577 -1.72363281 15.61645508 C-1.81788205 13.62365488 -1.8974178 11.63017597 -1.9765625 9.63671875 C-2.05511475 7.83787231 -2.05511475 7.83787231 -2.13525391 6.00268555 C-2 3 -2 3 0 0 Z " fill="#42494F" transform="translate(166,140)"/>
<path d="M0 0 C1.66611905 -0.042721 3.33382885 -0.04063832 5 0 C5.33 0.33 5.66 0.66 6 1 C8.0587768 1.27953219 10.11728432 1.44734351 12.1875 1.62109375 C13.0846875 1.80865234 13.0846875 1.80865234 14 2 C14.33 2.66 14.66 3.32 15 4 C13.35 4.33 11.7 4.66 10 5 C10.66 5.33 11.32 5.66 12 6 C12 8.31 12 10.62 12 13 C12.66 13 13.32 13 14 13 C14.66 11.02 15.32 9.04 16 7 C17.37562854 8.28965176 18.70766393 9.62689293 20 11 C20 11.66 20 12.32 20 13 C19.195625 13.28875 18.39125 13.5775 17.5625 13.875 C14.8673532 14.73262568 14.8673532 14.73262568 14 17 C17.63 16.67 21.26 16.34 25 16 C23 19 23 19 20.125 19.75 C17.34990614 19.97200751 15.59410701 19.89796012 13 19 C13 18.01 13 17.02 13 16 C10.525 15.505 10.525 15.505 8 15 C7.67 15.66 7.34 16.32 7 17 C6.67 15.35 6.34 13.7 6 12 C5.34 12 4.68 12 4 12 C3.67 12.99 3.34 13.98 3 15 C1 15 -1 15 -3 15 C-3.33 16.32 -3.66 17.64 -4 19 C-5.32 19 -6.64 19 -8 19 C-8.33 18.01 -8.66 17.02 -9 16 C-12.96 16.495 -12.96 16.495 -17 17 C-16.505 15.515 -16.505 15.515 -16 14 C-14.35 14 -12.7 14 -11 14 C-11 13.34 -11 12.68 -11 12 C-10.01 12 -9.02 12 -8 12 C-8.66 10.02 -9.32 8.04 -10 6 C-6.26512223 6.4979837 -4.18762365 6.87491756 -1 9 C-0.34 8.01 0.32 7.02 1 6 C0.34 5.67 -0.32 5.34 -1 5 C-0.67 3.35 -0.34 1.7 0 0 Z " fill="#281813" transform="translate(125,25)"/>
<path d="M0 0 C1.34592097 1.65651812 2.67518731 3.32655239 4 5 C4.77537109 5.94166016 4.77537109 5.94166016 5.56640625 6.90234375 C8.69590288 10.83118169 11 13.77656011 11 19 C10.0625 22.375 10.0625 22.375 9 25 C9.66 25 10.32 25 11 25 C14.64232612 21.17555757 16.6393389 18.19525146 18 13 C18.99 13.33 19.98 13.66 21 14 C19.72064944 19.79775049 17.57092738 23.45254885 13.8125 28 C13.32144775 28.6079541 12.83039551 29.2159082 12.32446289 29.84228516 C8.78902173 34.16924299 5.17302166 38.27091682 1 42 C0.34 42 -0.32 42 -1 42 C-0.125 37.125 -0.125 37.125 1 36 C1.20888708 34.00396794 1.36775477 32.00257059 1.5 30 C1.88888889 24.11111111 1.88888889 24.11111111 3 23 C3.3640113 19.2688842 2.93990206 16.58349542 1.5 13.1875 C-0.32500272 8.75779856 -0.29552418 4.72838687 0 0 Z " fill="#323538" transform="translate(166,167)"/>
<path d="M0 0 C0.33 0 0.66 0 1 0 C1.08926744 5.30645355 1.1472244 10.48978906 0.375 15.75 C-0.15293754 19.94375735 0.6328283 22.97044131 2 27 C2.3926411 28.64171414 2.76727053 30.2878267 3.125 31.9375 C3.29257813 32.70964844 3.46015625 33.48179687 3.6328125 34.27734375 C3.75398438 34.84582031 3.87515625 35.41429687 4 36 C3.34 35.34 2.68 34.68 2 34 C1.030625 34.061875 0.06125 34.12375 -0.9375 34.1875 C-1.948125 34.125625 -2.95875 34.06375 -4 34 C-6.97839341 30.48975062 -7.8446683 26.39026047 -9 22 C-9.37125 21.0925 -9.7425 20.185 -10.125 19.25 C-11.37812586 14.59553252 -11.72675178 9.78249561 -11 5 C-8 3 -8 3 -5.5 3.25 C-3 4 -3 4 0 6 C0 4.02 0 2.04 0 0 Z " fill="#B18174" transform="translate(92,96)"/>
<path d="M0 0 C1.27230469 0.00902344 2.54460937 0.01804687 3.85546875 0.02734375 C5.31919922 0.04474609 5.31919922 0.04474609 6.8125 0.0625 C7.7890625 1.85286458 8.765625 3.64322917 9.7421875 5.43359375 C10.72660024 7.22868315 10.72660024 7.22868315 12.8125 8.0625 C12.8125 9.0525 12.8125 10.0425 12.8125 11.0625 C11.8225 11.7225 10.8325 12.3825 9.8125 13.0625 C9.8125 13.7225 9.8125 14.3825 9.8125 15.0625 C9.1525 15.0625 8.4925 15.0625 7.8125 15.0625 C7.8125 14.4025 7.8125 13.7425 7.8125 13.0625 C6.4925 12.7325 5.1725 12.4025 3.8125 12.0625 C3.8125 13.3825 3.8125 14.7025 3.8125 16.0625 C2.678125 16.041875 1.54375 16.02125 0.375 16 C-3.00325674 15.64672523 -3.00325674 15.64672523 -4.1875 17.0625 C-6.52047433 17.10342937 -8.85455225 17.10491723 -11.1875 17.0625 C-10.84264457 14.1782546 -10.40494593 13.2417182 -8.12109375 11.359375 C-7.29738281 10.84890625 -6.47367188 10.3384375 -5.625 9.8125 C-4.79871094 9.29171875 -3.97242187 8.7709375 -3.12109375 8.234375 C-2.48300781 7.84765625 -1.84492187 7.4609375 -1.1875 7.0625 C-7.17332027 6.56241376 -7.17332027 6.56241376 -12.625 8.5625 C-13.140625 9.0575 -13.65625 9.5525 -14.1875 10.0625 C-14.8475 10.0625 -15.5075 10.0625 -16.1875 10.0625 C-15.89290991 6.52741897 -15.43868587 5.30046556 -12.8125 2.8125 C-8.4515978 -0.09476814 -5.14106294 -0.04716572 0 0 Z " fill="#9A695C" transform="translate(112.1875,77.9375)"/>
<path d="M0 0 C2 1 2 1 2.60742188 2.70947266 C3.06417278 5.37442102 3.19838702 7.94525331 3.28125 10.6484375 C3.31863281 11.73640625 3.35601562 12.824375 3.39453125 13.9453125 C3.42933594 15.07710937 3.46414062 16.20890625 3.5 17.375 C3.56926785 19.61209512 3.64207299 21.84908407 3.71875 24.0859375 C3.74904297 25.0764209 3.77933594 26.0669043 3.81054688 27.08740234 C4.00729883 30.11221008 4.48867531 33.01421998 5 36 C5.0904281 38.56124289 5.13010017 41.12466634 5.125 43.6875 C5.12757813 44.99074219 5.13015625 46.29398438 5.1328125 47.63671875 C5 51 5 51 4 54 C4.66 54.33 5.32 54.66 6 55 C4.515 55.495 4.515 55.495 3 56 C2.26676204 58.01508358 2.26676204 58.01508358 2 60 C1.67 60 1.34 60 1 60 C0.84966309 58.77482666 0.84966309 58.77482666 0.69628906 57.52490234 C0.23056891 53.8060055 -0.25945435 50.09070024 -0.75 46.375 C-0.90726563 45.08980469 -1.06453125 43.80460937 -1.2265625 42.48046875 C-1.39414063 41.23652344 -1.56171875 39.99257812 -1.734375 38.7109375 C-1.88100586 37.56931152 -2.02763672 36.42768555 -2.17871094 35.25146484 C-3.12089012 31.52139873 -4.82209045 29.13946266 -7 26 C-7.25 22.625 -7.25 22.625 -7 20 C-6.67 20.66 -6.34 21.32 -6 22 C-5.21625 21.938125 -4.4325 21.87625 -3.625 21.8125 C-2.325625 21.9053125 -2.325625 21.9053125 -1 22 C-0.34 22.99 0.32 23.98 1 25 C1.33 24.01 1.66 23.02 2 22 C1.0409375 21.566875 1.0409375 21.566875 0.0625 21.125 C-2 20 -2 20 -3 18 C-2.34 17.67 -1.68 17.34 -1 17 C-0.16250815 13.85940555 0.27719163 11.78893001 -0.8125 8.6875 C-1.90687325 6.84902178 -1.90687325 6.84902178 -4 6 C-4 5.34 -4 4.68 -4 4 C-2.68 3.67 -1.36 3.34 0 3 C0 2.01 0 1.02 0 0 Z " fill="#4E3621" transform="translate(170,42)"/>
<path d="M0 0 C3.33600997 2.06316826 4.78617931 4.57243303 5.81640625 8.28125 C1.06640625 6.40625 1.06640625 6.40625 -1.18359375 5.28125 C-3.55761876 5.21008618 -5.93360052 5.19715915 -8.30859375 5.21875 C-9.58992187 5.22777344 -10.87125 5.23679687 -12.19140625 5.24609375 C-13.17882812 5.25769531 -14.16625 5.26929687 -15.18359375 5.28125 C-15.18359375 6.27125 -15.18359375 7.26125 -15.18359375 8.28125 C-14.48492187 8.25804688 -13.78625 8.23484375 -13.06640625 8.2109375 C-12.15632812 8.19289063 -11.24625 8.17484375 -10.30859375 8.15625 C-8.95121094 8.12144531 -8.95121094 8.12144531 -7.56640625 8.0859375 C-5.18359375 8.28125 -5.18359375 8.28125 -3.18359375 10.28125 C-4.83359375 10.28125 -6.48359375 10.28125 -8.18359375 10.28125 C-5.54359375 11.60125 -2.90359375 12.92125 -0.18359375 14.28125 C-3.18359375 15.28125 -3.18359375 15.28125 -5.37109375 14.34375 C-5.96921875 13.993125 -6.56734375 13.6425 -7.18359375 13.28125 C-7.18359375 13.94125 -7.18359375 14.60125 -7.18359375 15.28125 C-9.16359375 15.28125 -11.14359375 15.28125 -13.18359375 15.28125 C-13.18359375 14.29125 -13.18359375 13.30125 -13.18359375 12.28125 C-14.32828125 13.0546875 -14.32828125 13.0546875 -15.49609375 13.84375 C-16.38296875 14.318125 -17.26984375 14.7925 -18.18359375 15.28125 C-19.17359375 14.95125 -20.16359375 14.62125 -21.18359375 14.28125 C-21.18359375 13.29125 -21.18359375 12.30125 -21.18359375 11.28125 C-21.84359375 11.28125 -22.50359375 11.28125 -23.18359375 11.28125 C-23.18359375 9.96125 -23.18359375 8.64125 -23.18359375 7.28125 C-22.52359375 7.28125 -21.86359375 7.28125 -21.18359375 7.28125 C-21.18359375 6.62125 -21.18359375 5.96125 -21.18359375 5.28125 C-20.52359375 5.28125 -19.86359375 5.28125 -19.18359375 5.28125 C-19.18359375 3.63125 -19.18359375 1.98125 -19.18359375 0.28125 C-13.41346429 -1.64212649 -5.81577075 -1.91431452 0 0 Z " fill="#99695D" transform="translate(159.18359375,76.71875)"/>
<path d="M0 0 C0 0.66 0 1.32 0 2 C-1.98 2.33 -3.96 2.66 -6 3 C-5.67 4.65 -5.34 6.3 -5 8 C-4.46375 7.649375 -3.9275 7.29875 -3.375 6.9375 C-0.26725237 5.71075751 1.79431703 6.27143569 5 7 C4.34 8.98 3.68 10.96 3 13 C5.31 13.66 7.62 14.32 10 15 C10.94693195 18.7016431 11.30443767 20.39112465 9.5625 23.875 C9.046875 24.57625 8.53125 25.2775 8 26 C8.66 26.391875 9.32 26.78375 10 27.1875 C12 29 12 29 12.25 31.6875 C12.1675 32.450625 12.085 33.21375 12 34 C10.5 32.625 10.5 32.625 9 31 C9 30.34 9 29.68 9 29 C8.236875 29.103125 7.47375 29.20625 6.6875 29.3125 C4 29 4 29 2.125 26.875 C0.78313239 23.44578278 1.09922639 21.52120592 2 18 C0.35 17.67 -1.3 17.34 -3 17 C-3.33 15.02 -3.66 13.04 -4 11 C-4.66 11 -5.32 11 -6 11 C-8 8 -8 8 -8 5 C-8.66 5 -9.32 5 -10 5 C-10 3.68 -10 2.36 -10 1 C-6.1496895 -1.56687367 -4.41430237 -0.83288724 0 0 Z " fill="#281813" transform="translate(160,35)"/>
<path d="M0 0 C1.97806641 -0.00773437 1.97806641 -0.00773437 3.99609375 -0.015625 C7.31100603 0.2312688 8.7503728 0.71611244 11.5625 2.25 C15.24453915 1.93873287 15.24453915 1.93873287 18.5625 1.25 C18.2325 2.24 17.9025 3.23 17.5625 4.25 C15.891875 4.4665625 15.891875 4.4665625 14.1875 4.6875 C10.74107953 5.03372035 10.74107953 5.03372035 8.5625 6.25 C8.2325 7.24 7.9025 8.23 7.5625 9.25 C4.75042765 10.65603618 2.32240534 10.49557505 -0.8125 10.5625 C-2.52566406 10.61857422 -2.52566406 10.61857422 -4.2734375 10.67578125 C-8.08615082 10.16271242 -8.93249349 9.03991068 -11.4375 6.25 C-15.08471696 5.44234122 -15.08471696 5.44234122 -18.4375 5.25 C-18.4375 4.26 -18.4375 3.27 -18.4375 2.25 C-16.45182292 2.31510417 -14.46614583 2.38020833 -12.48046875 2.4453125 C-8.11837598 2.02828642 -4.84114706 -0.05569872 0 0 Z " fill="#D29E90" transform="translate(132.4375,126.75)"/>
<path d="M0 0 C0.33 0.66 0.66 1.32 1 2 C1.99 1.34 2.98 0.68 4 0 C6.125 0.3125 6.125 0.3125 9 1 C11.27042086 1.23557139 13.54135542 1.43577765 15.81640625 1.62109375 C18.18229864 2.03163322 19.91440614 2.83187827 22 4 C22.33 3.01 22.66 2.02 23 1 C22.67 3.64 22.34 6.28 22 9 C19.69 9.66 17.38 10.32 15 11 C14.67 12.32 14.34 13.64 14 15 C12.35 15 10.7 15 9 15 C8.67 13.35 8.34 11.7 8 10 C6.6078125 10.12375 6.6078125 10.12375 5.1875 10.25 C2 10 2 10 0.125 8.3125 C-1.17322608 5.64392416 -1.31702508 3.93248201 -1 1 C-0.67 0.67 -0.34 0.34 0 0 Z " fill="#705047" transform="translate(121,109)"/>
<path d="M0 0 C-0.45074665 10.99821832 -3.51599381 17.2578415 -11.48046875 24.87890625 C-21.12707182 33 -21.12707182 33 -26 33 C-25.44423179 29.41066362 -24.36980199 28.20915744 -21.5 26.0625 C-14.14863044 19.94298156 -9.18108363 11.49664656 -5 3 C-2.5 0 -2.5 0 0 0 Z " fill="#3E474E" transform="translate(195,203)"/>
<path d="M0 0 C2.69743214 2.33475219 3.62677666 4.30870811 4.6875 7.6875 C7.76563302 16.6355611 12.3419093 24.94124631 16.734375 33.30078125 C18.06461329 36.1378018 18.27265786 37.90987758 18 41 C17.38125 40.360625 16.7625 39.72125 16.125 39.0625 C9.42375338 32.36125338 2.15125747 26.21240523 -5 20 C-2.36749612 18.68374806 -1.19820944 19.25186342 1.625 19.9375 C2.44226563 20.13214844 3.25953125 20.32679688 4.1015625 20.52734375 C4.72804688 20.68332031 5.35453125 20.83929688 6 21 C4.0097253 13.93718073 4.0097253 13.93718073 1.3125 7.125 C0 4 0 4 0 0 Z " fill="#32363A" transform="translate(105,182)"/>
<path d="M0 0 C3.63 0.33 7.26 0.66 11 1 C11 1.66 11 2.32 11 3 C9.68 3.33 8.36 3.66 7 4 C7.99 5.485 7.99 5.485 9 7 C8.67 7.66 8.34 8.32 8 9 C8.66 9 9.32 9 10 9 C10 9.66 10 10.32 10 11 C10.66 11 11.32 11 12 11 C12 12.32 12 13.64 12 15 C13.32 15 14.64 15 16 15 C16 16.98 16 18.96 16 21 C13.24921116 21.91692961 11.64051087 22.10886083 8.8125 22.0625 C6.9253125 22.0315625 6.9253125 22.0315625 5 22 C5.66 20.68 6.32 19.36 7 18 C8.32 18 9.64 18 11 18 C10.01 16.35 9.02 14.7 8 13 C7.3503125 14.2065625 7.3503125 14.2065625 6.6875 15.4375 C5 18 5 18 2 19 C2.33 16.36 2.66 13.72 3 11 C2.01 10.67 1.02 10.34 0 10 C1.65 9.34 3.3 8.68 5 8 C3.700625 7.87625 2.40125 7.7525 1.0625 7.625 C-1.15234375 7.4140625 -1.15234375 7.4140625 -3 7 C-3.33 6.34 -3.66 5.68 -4 5 C-3.34 4.34 -2.68 3.68 -2 3 C-1.34 2.01 -0.68 1.02 0 0 Z " fill="#3C271E" transform="translate(134,20)"/>
<path d="M0 0 C0 0.66 0 1.32 0 2 C1.32 2 2.64 2 4 2 C4 2.66 4 3.32 4 4 C-0.625 6.125 -0.625 6.125 -4 5 C-4.33 5.33 -4.66 5.66 -5 6 C-6.66617115 6.04063832 -8.33388095 6.042721 -10 6 C-10 6.66 -10 7.32 -10 8 C-9.01 8.33 -8.02 8.66 -7 9 C-7 9.66 -7 10.32 -7 11 C-10 12 -10 12 -13.5 12.3125 C-17.0566163 12.64165168 -17.0566163 12.64165168 -18.8125 15.0625 C-19.204375 15.701875 -19.59625 16.34125 -20 17 C-20.66 17 -21.32 17 -22 17 C-22 17.66 -22 18.32 -22 19 C-23.32 19.33 -24.64 19.66 -26 20 C-25.71125 19.443125 -25.4225 18.88625 -25.125 18.3125 C-23.95571778 16.02933028 -23.95571778 16.02933028 -23.1875 13.625 C-21.65111093 10.22877153 -19.52564212 7.68685332 -17 5 C-16.4946875 4.4225 -15.989375 3.845 -15.46875 3.25 C-10.56462133 -1.7466594 -6.62505065 -1.466309 0 0 Z " fill="#402B1F" transform="translate(112,30)"/>
<path d="M0 0 C3 1 3 1 3.96386719 2.71484375 C4.23875977 3.44832031 4.51365234 4.18179688 4.796875 4.9375 C5.11229248 5.74630615 5.42770996 6.5551123 5.75268555 7.38842773 C6.2463562 8.68115601 6.2463562 8.68115601 6.75 10 C10.51917375 19.40241652 14.55963727 27.01479343 23 33 C26.15352049 34.28565936 26.15352049 34.28565936 29.5 35.1875 C31.15515625 35.67283203 31.15515625 35.67283203 32.84375 36.16796875 C35.55423964 36.88249139 38.24462261 37.49107768 41 38 C41 38.33 41 38.66 41 39 C31.16374668 39.55444434 23.69692417 37.98398407 15.91796875 31.7421875 C11.23522845 27.48861891 6.84624333 22.69248665 4 17 C4 16.34 4 15.68 4 15 C3.34 15 2.68 15 2 15 C1.34 14.01 0.68 13.02 0 12 C0.30271961 10.65938457 0.63837971 9.32594105 1 8 C0.70630173 6.65737935 0.3721042 5.32303717 0 4 C0 2.68 0 1.36 0 0 Z " fill="#CC9684" transform="translate(96,124)"/>
<path d="M0 0 C1.65 0 3.3 0 5 0 C8.33512719 5.59397827 7.8212232 12.61542115 6.32421875 18.78515625 C5.61880649 20.89470666 4.86851712 22.95278108 4 25 C3.34 23.68 2.68 22.36 2 21 C0.02 21.33 -1.96 21.66 -4 22 C-4.60028025 15.95273231 -4.86708124 11.36908039 -1.0625 6.375 C0.2478945 4.85704892 1.58335896 3.41664104 3 2 C2.01 1.34 1.02 0.68 0 0 Z " fill="#9D6F63" transform="translate(176,95)"/>
<path d="M0 0 C1 2 1 2 0.4375 4.375 C-0.06525738 7.39154426 0.40328736 8.46404463 2 11 C1.32582031 10.45214844 0.65164062 9.90429688 -0.04296875 9.33984375 C-3.01281521 7.6222631 -3.01281521 7.6222631 -6.42578125 8.87890625 C-7.72910038 9.42187176 -9.02441319 9.98432646 -10.3125 10.5625 C-17.28096784 13.45453584 -24.11790045 15.40853975 -31.4765625 17.04296875 C-34.95385809 17.987467 -37.80145355 19.37283248 -41 21 C-43.375 20.6875 -43.375 20.6875 -45 20 C-42.88705021 17.66009315 -41.13435639 16.44073424 -38.18359375 15.3515625 C-37.42739746 15.07086914 -36.67120117 14.79017578 -35.89208984 14.50097656 C-35.0820752 14.2119043 -34.27206055 13.92283203 -33.4375 13.625 C-32.60428223 13.32045898 -31.77106445 13.01591797 -30.91259766 12.70214844 C-24.2166237 10.30686116 -17.4396738 8.34552171 -10.52514648 6.68603516 C-8.65829229 6.21419985 -6.82376096 5.61779374 -5 5 C-4.67 4.01 -4.34 3.02 -4 2 C-1.9375 0.8125 -1.9375 0.8125 0 0 Z " fill="#64624C" transform="translate(71,185)"/>
<path d="M0 0 C1 2 1 2 0.640625 4.73046875 C-0.05624782 10.89779318 -0.07998696 14.99737831 3.64453125 20.015625 C6.88305918 23.89053033 10.39955049 27.46409057 14 31 C14.93344238 31.96111694 14.93344238 31.96111694 15.88574219 32.94165039 C16.49708008 33.56934326 17.10841797 34.19703613 17.73828125 34.84375 C18.28911377 35.41158203 18.83994629 35.97941406 19.4074707 36.56445312 C21.11290449 38.23007706 21.11290449 38.23007706 24.125 39.5625 C26.89178833 40.94589417 27.78537984 41.72932321 29.625 44.0625 C31.76177938 46.7053587 32.89382866 47.84956617 36 49 C35.67 51.31 35.34 53.62 35 56 C32 56 32 56 30 55 C30.99 53.35 31.98 51.7 33 50 C32.01 50 31.02 50 30 50 C29.38125 49.030625 28.7625 48.06125 28.125 47.0625 C26.31781611 43.79320392 26.31781611 43.79320392 23.25 43.125 C22.5075 43.08375 21.765 43.0425 21 43 C21 42.34 21 41.68 21 41 C19.515 40.505 19.515 40.505 18 40 C14.46961497 36.69062754 11.20857937 33.12681369 7.9375 29.5625 C7.10089844 28.65628906 6.26429688 27.75007813 5.40234375 26.81640625 C0.68950591 21.29127441 -1.50823591 17.68445823 -1.875 10.3125 C-1.95492187 9.00925781 -2.03484375 7.70601562 -2.1171875 6.36328125 C-2 3 -2 3 0 0 Z " fill="#585B53" transform="translate(166,140)"/>
<path d="M0 0 C1.92763565 2.38440149 3.83188819 4.76984692 5.640625 7.24609375 C11.54123302 15.28065952 18.01235828 21.00579533 28 23 C35.22909566 23.83279182 41.1935472 22.30464103 48 20 C49.32979042 19.65280216 50.66212602 19.3146142 52 19 C48.95704331 22.7589465 44.57474405 24.63057635 39.87133789 25.30541992 C37.59431153 25.43741052 35.34306914 25.45866984 33.0625 25.4375 C32.30259766 25.45748047 31.54269531 25.47746094 30.75976562 25.49804688 C22.42850583 25.49093222 16.71522834 22.11434346 10.6875 16.5 C9.86636719 15.7471875 9.04523438 14.994375 8.19921875 14.21875 C6.24229124 12.24444303 4.59471571 10.2707926 3 8 C2.67 10.64 2.34 13.28 2 16 C1.34 16 0.68 16 0 16 C-0.061875 16.99 -0.12375 17.98 -0.1875 19 C-0.82432306 23.71827991 -3.30728164 27.1745514 -6 31 C-7.33332095 28.3333581 -6.67102033 26.83319697 -6 24 C-6.66 23.67 -7.32 23.34 -8 23 C-7.01 22.67 -6.02 22.34 -5 22 C-0.40330515 15.46952318 -0.23836221 7.71101762 0 0 Z " fill="#7E5B52" transform="translate(99,139)"/>
<path d="M0 0 C4.25530812 2.22016076 5.64802594 3.09711002 7.4375 7.6875 C8.53469513 13.61678679 8.14192218 19.76346303 5 25 C4.34 25.33 3.68 25.66 3 26 C3 26.99 3 27.98 3 29 C2.34 29 1.68 29 1 29 C-0.39151652 24.20699867 0.31337311 19.84864218 1 15 C0.34 15 -0.32 15 -1 15 C-1 14.01 -1 13.02 -1 12 C-2.32 12 -3.64 12 -5 12 C-5 10.68 -5 9.36 -5 8 C-3.68 8.33 -2.36 8.66 -1 9 C-1 9.66 -1 10.32 -1 11 C-0.34 11 0.32 11 1 11 C0.67 10.01 0.34 9.02 0 8 C1.32 7.67 2.64 7.34 4 7 C4 6.01 4 5.02 4 4 C2.68 3.34 1.36 2.68 0 2 C0 1.34 0 0.68 0 0 Z " fill="#D9A496" transform="translate(121,82)"/>
<path d="M0 0 C1.32 0 2.64 0 4 0 C4.02708567 1.60407328 4.04643483 3.2082785 4.0625 4.8125 C4.07410156 5.70582031 4.08570312 6.59914063 4.09765625 7.51953125 C4 10 4 10 3 13 C2.79472684 15.77403869 2.6274323 18.53494787 2.5 21.3125 C2.26829468 26.28558267 1.9355643 31.09608377 1 36 C0.195625 35.4740625 0.195625 35.4740625 -0.625 34.9375 C-3.73274763 33.71075751 -5.79431703 34.27143569 -9 35 C-8.67 34.01 -8.34 33.02 -8 32 C-6.68 32 -5.36 32 -4 32 C-4.02320312 31.37351562 -4.04640625 30.74703125 -4.0703125 30.1015625 C-4.09738281 28.87566406 -4.09738281 28.87566406 -4.125 27.625 C-4.14820312 26.81289062 -4.17140625 26.00078125 -4.1953125 25.1640625 C-4 23 -4 23 -2 21 C-1.64735043 19.00171263 -1.64735043 19.00171263 -1.62109375 16.71875 C-1.58693359 15.87699219 -1.55277344 15.03523438 -1.51757812 14.16796875 C-1.47793945 12.84732422 -1.47793945 12.84732422 -1.4375 11.5 C-1.37764129 9.76027651 -1.31401931 8.0206772 -1.24609375 6.28125 C-1.22216553 5.50845703 -1.1982373 4.73566406 -1.17358398 3.93945312 C-1 2 -1 2 0 0 Z " fill="#5D422E" transform="translate(91,66)"/>
<path d="M0 0 C1.76923828 0.01353516 1.76923828 0.01353516 3.57421875 0.02734375 C4.47785156 0.03894531 5.38148438 0.05054688 6.3125 0.0625 C5.9825 1.0525 5.6525 2.0425 5.3125 3.0625 C2.3425 3.0625 -0.6275 3.0625 -3.6875 3.0625 C-4.3475 4.3825 -5.0075 5.7025 -5.6875 7.0625 C-6.82429996 8.83204711 -7.99294925 10.58141375 -9.1875 12.3125 C-9.7959375 13.20453125 -10.404375 14.0965625 -11.03125 15.015625 C-11.5778125 15.69109375 -12.124375 16.3665625 -12.6875 17.0625 C-13.3475 17.0625 -14.0075 17.0625 -14.6875 17.0625 C-14.62720033 15.14497047 -14.53833293 13.22832574 -14.4375 11.3125 C-14.39109375 10.24515625 -14.3446875 9.1778125 -14.296875 8.078125 C-13.57086053 4.48528414 -12.54377727 3.29331509 -9.6875 1.0625 C-6.26517028 -0.07827657 -3.60076783 -0.03565117 0 0 Z " fill="#F0F0F0" transform="translate(152.6875,223.9375)"/>
<path d="M0 0 C0.66 0.66 1.32 1.32 2 2 C-1.57481207 8.62584216 -4.9856362 13.42908351 -11 18 C-11.66 17.34 -12.32 16.68 -13 16 C-17.00047339 16.32436271 -19.64242011 17.91285574 -23 20 C-23.66 20 -24.32 20 -25 20 C-24.505 18.515 -24.505 18.515 -24 17 C-21.69921875 15.97265625 -21.69921875 15.97265625 -19 15 C-11.87197506 10.9665165 -5.94198303 5.58223875 0 0 Z " fill="#323A3F" transform="translate(193,218)"/>
<path d="M0 0 C3.33600997 2.06316826 4.78617931 4.57243303 5.81640625 8.28125 C1.06640625 6.40625 1.06640625 6.40625 -1.18359375 5.28125 C-4.06269963 5.04850791 -6.9250587 4.86152243 -9.80859375 4.71875 C-11.01128906 4.65397461 -11.01128906 4.65397461 -12.23828125 4.58789062 C-14.21984485 4.48173543 -16.20169646 4.38098145 -18.18359375 4.28125 C-18.51359375 2.96125 -18.84359375 1.64125 -19.18359375 0.28125 C-13.41346429 -1.64212649 -5.81577075 -1.91431452 0 0 Z " fill="#624841" transform="translate(159.18359375,76.71875)"/>
<path d="M0 0 C0.66 0.33 1.32 0.66 2 1 C1.38511719 1.66644531 0.77023438 2.33289062 0.13671875 3.01953125 C-4.87681435 8.73671812 -8.00946139 13.27107105 -9.46484375 20.78515625 C-10 23 -10 23 -12 25 C-12.20225023 29.17983803 -12.33650858 32.99047425 -11 37 C-11.99 37.495 -11.99 37.495 -13 38 C-15.05184357 32.25176409 -15.06702407 27.76646645 -14.3125 21.75 C-14.23322266 20.94820312 -14.15394531 20.14640625 -14.07226562 19.3203125 C-13.57119303 15.00892525 -13.27082553 12.9954261 -10 10 C-9.5875 9.21625 -9.175 8.4325 -8.75 7.625 C-6.36734479 4.05101718 -3.57528523 2.36103742 0 0 Z " fill="#C48F80" transform="translate(108,52)"/>
<path d="M0 0 C2.55980222 1.45033181 4.878723 2.95080523 7 5 C7.6875 8.4375 7.6875 8.4375 8 12 C9.29572383 14.02456848 10.6273318 16.02678947 12 18 C13.22345053 21.97621423 13.08115598 25.86104489 13 30 C12.67 29.34 12.34 28.68 12 28 C11.34 28 10.68 28 10 28 C10 28.66 10 29.32 10 30 C9.34 29.67 8.68 29.34 8 29 C8 28.01 8 27.02 8 26 C8.66 26 9.32 26 10 26 C9.61328125 25.27296875 9.2265625 24.5459375 8.828125 23.796875 C0 6.75247525 0 6.75247525 0 0 Z " fill="#C99384" transform="translate(156,56)"/>
<path d="M0 0 C1.27230469 0.00902344 2.54460937 0.01804687 3.85546875 0.02734375 C5.31919922 0.04474609 5.31919922 0.04474609 6.8125 0.0625 C6.4825 1.7125 6.1525 3.3625 5.8125 5.0625 C4.87148437 5.08828125 3.93046875 5.1140625 2.9609375 5.140625 C-6.40962248 5.46541675 -6.40962248 5.46541675 -14.1875 10.0625 C-14.8475 10.0625 -15.5075 10.0625 -16.1875 10.0625 C-15.89290991 6.52741897 -15.43868587 5.30046556 -12.8125 2.8125 C-8.4515978 -0.09476814 -5.14106294 -0.04716572 0 0 Z " fill="#604740" transform="translate(112.1875,77.9375)"/>
<path d="M0 0 C-1.75 2.5 -1.75 2.5 -4 5 C-5.32 5 -6.64 5 -8 5 C-8.66 15.56 -9.32 26.12 -10 37 C-10.33 37 -10.66 37 -11 37 C-11.86150275 30.07926126 -12.33806631 23.22214517 -12.5 16.25 C-12.55414063 15.23550781 -12.60828125 14.22101563 -12.6640625 13.17578125 C-12.79673573 5.9640437 -12.79673573 5.9640437 -10.50952148 3.1965332 C-7.08295975 0.65014784 -4.37540637 -0.66294036 0 0 Z " fill="#3E291E" transform="translate(99,61)"/>
<path d="M0 0 C1.97806641 -0.00773437 1.97806641 -0.00773437 3.99609375 -0.015625 C7.31100603 0.2312688 8.7503728 0.71611244 11.5625 2.25 C15.24453915 1.93873287 15.24453915 1.93873287 18.5625 1.25 C18.2325 2.24 17.9025 3.23 17.5625 4.25 C6.0125 4.25 -5.5375 4.25 -17.4375 4.25 C-17.4375 3.59 -17.4375 2.93 -17.4375 2.25 C-15.7978125 2.311875 -15.7978125 2.311875 -14.125 2.375 C-9.09001104 2.20432241 -5.36377012 -0.06171164 0 0 Z " fill="#7B5B52" transform="translate(132.4375,126.75)"/>
<path d="M0 0 C1.125 2.5 1.125 2.5 2 5 C2.66 5.33 3.32 5.66 4 6 C3.34 6 2.68 6 2 6 C2 7.98 2 9.96 2 12 C1.01 12.495 1.01 12.495 0 13 C-0.66 12.67 -1.32 12.34 -2 12 C-2.625 9.9375 -2.625 9.9375 -3 8 C-3.66 8.66 -4.32 9.32 -5 10 C-5.66 9.67 -6.32 9.34 -7 9 C-7 8.01 -7 7.02 -7 6 C-7.66 5.34 -8.32 4.68 -9 4 C-7.35 3.67 -5.7 3.34 -4 3 C-4 2.34 -4 1.68 -4 1 C-5.32 0.67 -6.64 0.34 -8 0 C-5.00112135 -0.96392528 -2.91185125 -1.35886391 0 0 Z " fill="#604333" transform="translate(149,20)"/>
<path d="M0 0 C10.87195708 0.86249346 19.36589859 2.730408 29 8 C29 8.66 29 9.32 29 10 C23.71955691 9.39416038 18.97216935 8.17662633 13.9375 6.5 C9.2982383 4.96382063 4.86455688 3.66783308 0 3 C0 2.01 0 1.02 0 0 Z " fill="#606562" transform="translate(199,200)"/>
<path d="M0 0 C1.09570312 0.00902344 2.19140625 0.01804687 3.3203125 0.02734375 C4.16335937 0.03894531 5.00640625 0.05054687 5.875 0.0625 C5.875 0.3925 5.875 0.7225 5.875 1.0625 C4.225 1.3925 2.575 1.7225 0.875 2.0625 C1.679375 2.330625 2.48375 2.59875 3.3125 2.875 C4.5809375 3.4628125 4.5809375 3.4628125 5.875 4.0625 C6.205 5.0525 6.535 6.0425 6.875 7.0625 C7.865 7.7225 8.855 8.3825 9.875 9.0625 C9.545 10.0525 9.215 11.0425 8.875 12.0625 C6.895 12.0625 4.915 12.0625 2.875 12.0625 C2.875 11.0725 2.875 10.0825 2.875 9.0625 C-0.095 8.0725 -3.065 7.0825 -6.125 6.0625 C-6.125 5.7325 -6.125 5.4025 -6.125 5.0625 C-3.485 5.0625 -0.845 5.0625 1.875 5.0625 C-1.425 4.7325 -4.725 4.4025 -8.125 4.0625 C-8.125 3.0725 -8.125 2.0825 -8.125 1.0625 C-5.36047967 -0.31976016 -3.0788637 -0.03275387 0 0 Z " fill="#D29B8C" transform="translate(152.125,80.9375)"/>
<path d="M0 0 C1.50662097 3.01324195 1.17770373 5.68286377 1 9 C-1 11 -1 11 -4.125 11.125 C-5.07375 11.08375 -6.0225 11.0425 -7 11 C-7.33 13.64 -7.66 16.28 -8 19 C-9.1649099 15.52988107 -8.83242815 12.99886774 -8.125 9.4375 C-7.94195312 8.48746094 -7.75890625 7.53742188 -7.5703125 6.55859375 C-7 4 -7 4 -6 1 C-4 0 -4 0 0 0 Z " fill="#E3AB9C" transform="translate(178,116)"/>
<path d="M0 0 C0.66 1.32 1.32 2.64 2 4 C1.51789063 4.47050781 1.03578125 4.94101563 0.5390625 5.42578125 C-0.09257812 6.04839844 -0.72421875 6.67101562 -1.375 7.3125 C-2.00148437 7.92738281 -2.62796875 8.54226562 -3.2734375 9.17578125 C-5.18086607 11.08812528 -5.18086607 11.08812528 -7 14 C-4.525 14.495 -4.525 14.495 -2 15 C-2.33 16.65 -2.66 18.3 -3 20 C-3.66 20 -4.32 20 -5 20 C-5 19.01 -5 18.02 -5 17 C-7.06326977 17.08760589 -9.1256716 17.19579273 -11.1875 17.3125 C-12.33605469 17.37050781 -13.48460937 17.42851562 -14.66796875 17.48828125 C-18.17577424 18.02699464 -20.10955294 19.00287051 -23 21 C-23.66 21.33 -24.32 21.66 -25 22 C-24.03584275 19.58960688 -23.42474898 18.26068285 -21.1796875 16.8828125 C-18.91443493 15.96534462 -17.29367141 15.87494981 -14.875 15.75 C-9.51781165 14.73382783 -7.35896696 11.12573966 -4.4375 6.875 C-2.91643298 4.60533049 -1.44900469 2.31719748 0 0 Z " fill="#645953" transform="translate(164,207)"/>
<path d="M0 0 C1 2 1 2 0.4375 4.375 C-0.06525738 7.39154426 0.40328736 8.46404463 2 11 C1.34257813 10.44570312 0.68515625 9.89140625 0.0078125 9.3203125 C-3.31088596 7.86353318 -3.67276212 7.90391472 -6.8828125 9.0546875 C-8.30576826 9.64029872 -9.71982639 10.24791888 -11.125 10.875 C-18.65153302 14.11615566 -18.65153302 14.11615566 -22 13 C-22 12.34 -22 11.68 -22 11 C-16.96852738 9.07889227 -11.961615 7.3354225 -6.78515625 5.84375 C-6.19605469 5.5653125 -5.60695313 5.286875 -5 5 C-4.67 4.01 -4.34 3.02 -4 2 C-1.9375 0.8125 -1.9375 0.8125 0 0 Z " fill="#5D656A" transform="translate(71,185)"/>
<path d="M0 0 C0.99 0.33 1.98 0.66 3 1 C1.55612908 7.43178864 -0.79269181 12.86179454 -6.4375 16.625 C-7.7059375 17.305625 -7.7059375 17.305625 -9 18 C-11.05886632 19.60513512 -13.020166 21.2964219 -15 23 C-15 19.37 -15 15.74 -15 12 C-14.67 12 -14.34 12 -14 12 C-13.67 13.98 -13.34 15.96 -13 18 C-11.19599782 16.1356633 -9.40736018 14.25984589 -7.625 12.375 C-7.11710938 11.85292969 -6.60921875 11.33085937 -6.0859375 10.79296875 C-2.89887499 7.39623108 -1.15354807 4.62809046 0 0 Z " fill="#282E32" transform="translate(184,180)"/>
<path d="M0 0 C0.33 0 0.66 0 1 0 C0.67 2.64 0.34 5.28 0 8 C-2.31 8.66 -4.62 9.32 -7 10 C-7.33 11.32 -7.66 12.64 -8 14 C-9.65 14 -11.3 14 -13 14 C-13.33 12.35 -13.66 10.7 -14 9 C-15.98 9 -17.96 9 -20 9 C-19.67 8.34 -19.34 7.68 -19 7 C-15.37 7 -11.74 7 -8 7 C-7.67 6.34 -7.34 5.68 -7 5 C-5.35 5 -3.7 5 -2 5 C-2 4.34 -2 3.68 -2 3 C-1.34 3 -0.68 3 0 3 C0 2.01 0 1.02 0 0 Z " fill="#CD9687" transform="translate(143,110)"/>
<path d="M0 0 C0.33 1.32 0.66 2.64 1 4 C1.66 4 2.32 4 3 4 C3 4.66 3 5.32 3 6 C3.66 6 4.32 6 5 6 C8.03313795 11.67064922 9.14339047 16.22029555 9.1875 22.625 C9.20167969 23.56601563 9.21585938 24.50703125 9.23046875 25.4765625 C9 28 9 28 7 31 C6.82984375 29.69804688 6.6596875 28.39609375 6.484375 27.0546875 C6.24038812 25.32801109 5.99555146 23.60145461 5.75 21.875 C5.64042969 21.0190625 5.53085938 20.163125 5.41796875 19.28125 C4.62443839 13.85183173 3.30827802 10.50142747 0 6 C-0.25 2.625 -0.25 2.625 0 0 Z " fill="#614438" transform="translate(163,62)"/>
<path d="M0 0 C0.33 2.64 0.66 5.28 1 8 C-0.58409994 7.88512252 -2.16728963 7.75765492 -3.75 7.625 C-4.63171875 7.55539063 -5.5134375 7.48578125 -6.421875 7.4140625 C-8.99066382 7.00149945 -10.75841015 6.28839043 -13 5 C-12.34 5 -11.68 5 -11 5 C-11 4.34 -11 3.68 -11 3 C-11.66 2.67 -12.32 2.34 -13 2 C-4.57142857 -0.28571429 -4.57142857 -0.28571429 0 0 Z " fill="#3A3D40" transform="translate(136,234)"/>
<path d="M0 0 C3.99455527 0.61454696 6.74466336 2.70646737 10 5 C9.01 6.485 9.01 6.485 8 8 C5.03 7.505 5.03 7.505 2 7 C1.67 7.99 1.34 8.98 1 10 C-1.97 9.505 -1.97 9.505 -5 9 C-5 7.68 -5 6.36 -5 5 C-5.66 4.67 -6.32 4.34 -7 4 C-6.34 3.01 -5.68 2.02 -5 1 C-4.67 2.65 -4.34 4.3 -4 6 C-3.01 6 -2.02 6 -1 6 C-0.67 4.02 -0.34 2.04 0 0 Z " fill="#442E1F" transform="translate(151,26)"/>
<path d="M0 0 C0 0.99 0 1.98 0 3 C0.12375 3.78375 0.2475 4.5675 0.375 5.375 C-0.2008573 9.40600111 -2.86583555 10.63338603 -6 13 C-6.33 13.66 -6.66 14.32 -7 15 C-7.66 15 -8.32 15 -9 15 C-9 15.66 -9 16.32 -9 17 C-10.32 17.33 -11.64 17.66 -13 18 C-12.71125 17.443125 -12.4225 16.88625 -12.125 16.3125 C-10.95571778 14.02933028 -10.95571778 14.02933028 -10.1875 11.625 C-7.97140619 6.72626631 -4.45294303 2.96862869 0 0 Z " fill="#664A29" transform="translate(99,32)"/>
<path d="M0 0 C6.31966499 1.90782339 6.31966499 1.90782339 8.16796875 4.875 C10.26035503 10.21893491 10.26035503 10.21893491 9 14 C8.67 13.34 8.34 12.68 8 12 C6.5459375 12.0309375 6.5459375 12.0309375 5.0625 12.0625 C2 12 2 12 1 11 C1 9.00249552 1.00355875 7.00444719 1.0625 5.0078125 C1.0894741 2.79082569 1.0894741 2.79082569 0 0 Z " fill="#C89780" transform="translate(86,118)"/>
<path d="M0 0 C2.81256281 -0.02684312 5.62487241 -0.04676188 8.4375 -0.0625 C9.23994141 -0.07087891 10.04238281 -0.07925781 10.86914062 -0.08789062 C12.91295221 -0.0965143 14.95683902 -0.0522815 17 0 C18 1 18 1 18.0625 3.5625 C18.041875 4.366875 18.02125 5.17125 18 6 C17.01 6.495 17.01 6.495 16 7 C16 5.68 16 4.36 16 3 C14.80375 3.33 13.6075 3.66 12.375 4 C8.83397302 4.87897833 5.66669474 5.34920902 2 5 C1.34 4.34 0.68 3.68 0 3 C0 2.01 0 1.02 0 0 Z " fill="#DEDEDE" transform="translate(120,231)"/>
<path d="M0 0 C0.66 0 1.32 0 2 0 C2.67635064 3.20636973 3.33932448 6.41536689 4 9.625 C4.19078125 10.52863281 4.3815625 11.43226563 4.578125 12.36328125 C5.52210398 16.98203556 6.25214768 21.25647172 6 26 C4 25 4 25 2.9296875 22.2265625 C0.703222 14.62359513 -0.58210437 7.9230873 0 0 Z " fill="#313437" transform="translate(99,155)"/>
<path d="M0 0 C0.66 0.33 1.32 0.66 2 1 C2.79941308 3.52369457 3.4936108 5.99718906 4.125 8.5625 C4.30675781 9.27341797 4.48851563 9.98433594 4.67578125 10.71679688 C5.12444465 12.47602969 5.56315957 14.23779417 6 16 C5.34 16 4.68 16 4 16 C4.22816406 16.61488281 4.45632812 17.22976562 4.69140625 17.86328125 C5.12259766 19.07564453 5.12259766 19.07564453 5.5625 20.3125 C5.85253906 21.11300781 6.14257812 21.91351563 6.44140625 22.73828125 C7 25 7 25 6 28 C5.00947453 25.50399697 4.03255943 23.00395203 3.0625 20.5 C2.78470703 19.80390625 2.50691406 19.1078125 2.22070312 18.390625 C0.01270672 12.64451387 -2.27029414 6.05411771 0 0 Z " fill="#D9A597" transform="translate(92,108)"/>
<path d="M0 0 C0.72316406 -0.02320313 1.44632813 -0.04640625 2.19140625 -0.0703125 C2.97386719 -0.08835938 3.75632813 -0.10640625 4.5625 -0.125 C5.34753906 -0.14820313 6.13257813 -0.17140625 6.94140625 -0.1953125 C9 0 9 0 11 2 C13.57061311 2.64767793 13.57061311 2.64767793 16 3 C12.31690544 5.45539638 9.50696926 5.29660915 5.25 5.25 C4.5590625 5.25773437 3.868125 5.26546875 3.15625 5.2734375 C-1.5790637 5.25563557 -5.503165 4.48324924 -10 3 C-10 2.67 -10 2.34 -10 2 C-3.375 0 -3.375 0 0 0 Z " fill="#D59F90" transform="translate(126,46)"/>
<path d="M0 0 C3.51923076 3.51923076 2.84572207 8.84010904 3.1875 13.625 C2.92812981 16.91035569 1.94639956 19.8453348 1 23 C0.49738185 25.38936935 0.01786848 27.78087141 -0.4375 30.1796875 C-0.623125 30.78039062 -0.80875 31.38109375 -1 32 C-1.99 32.495 -1.99 32.495 -3 33 C-2.08080808 25.51515152 -2.08080808 25.51515152 -1.5 21.8125 C-0.92072256 17.39550952 -0.65607969 13.00934263 -0.4375 8.5625 C-0.39431641 7.73556641 -0.35113281 6.90863281 -0.30664062 6.05664062 C-0.20161967 4.03790451 -0.10041441 2.01897049 0 0 Z " fill="#E4B4A6" transform="translate(170,103)"/>
<path d="M0 0 C0.33 1.32 0.66 2.64 1 4 C0.42765625 4.22429687 -0.1446875 4.44859375 -0.734375 4.6796875 C-3.64866633 6.3780159 -5.19907745 8.45880069 -7.25 11.125 C-7.95640625 12.03507813 -8.6628125 12.94515625 -9.390625 13.8828125 C-9.92171875 14.58148438 -10.4528125 15.28015625 -11 16 C-11.66 15.67 -12.32 15.34 -13 15 C-11.58611621 13.24775086 -10.16877217 11.49829345 -8.75 9.75 C-7.96109375 8.77546875 -7.1721875 7.8009375 -6.359375 6.796875 C-4.33534195 4.39752456 -2.25877651 2.17588563 0 0 Z M-14 16 C-14 20.33174693 -16.65822583 22.22353653 -19.5 25.1875 C-20.28697266 26.02571289 -20.28697266 26.02571289 -21.08984375 26.88085938 C-22.38661613 28.26015364 -23.69246259 29.63090644 -25 31 C-25.33 30.01 -25.66 29.02 -26 28 C-22.04 24.04 -18.08 20.08 -14 16 Z " fill="#252B2F" transform="translate(199,194)"/>
<path d="M0 0 C-0.33 3.63 -0.66 7.26 -1 11 C-1.66 10.67 -2.32 10.34 -3 10 C-3.66 10.66 -4.32 11.32 -5 12 C-6.32 10.68 -7.64 9.36 -9 8 C-7.07834179 2.53066508 -6.10288444 0 0 0 Z " fill="#AC7A64" transform="translate(183,99)"/>
<path d="M0 0 C1.32 0.33 2.64 0.66 4 1 C4 1.66 4 2.32 4 3 C4.66 3 5.32 3 6 3 C6.35789474 8.36842105 6.35789474 8.36842105 4.9375 10.875 C1.99772876 12.58196395 -0.67870803 12.18799766 -4 12 C-4 10.02 -4 8.04 -4 6 C-2.02 6.99 -2.02 6.99 0 8 C0.66 7.01 1.32 6.02 2 5 C1.34 4.67 0.68 4.34 0 4 C0 2.68 0 1.36 0 0 Z " fill="#37241B" transform="translate(124,26)"/>
<path d="M0 0 C1.32 0.66 2.64 1.32 4 2 C4 2.99 4 3.98 4 5 C3.01 5.495 3.01 5.495 2 6 C2 6.99 2 7.98 2 9 C-0.64738916 10.4606285 -1.89448334 11 -5 11 C-5.33 9.35 -5.66 7.7 -6 6 C-4.125 4.9375 -4.125 4.9375 -2 4 C-1.34 4.33 -0.68 4.66 0 5 C0 4.34 0 3.68 0 3 C-2.31 2.67 -4.62 2.34 -7 2 C-7 1.67 -7 1.34 -7 1 C-5.5459375 1.0309375 -5.5459375 1.0309375 -4.0625 1.0625 C-1.12534105 1.35618499 -1.12534105 1.35618499 0 0 Z " fill="#3B261A" transform="translate(160,32)"/>
<path d="M0 0 C0.33 0 0.66 0 1 0 C1.33 1.65 1.66 3.3 2 5 C2.66 4.67 3.32 4.34 4 4 C4.04898438 4.88042969 4.09796875 5.76085937 4.1484375 6.66796875 C4.22320312 7.82941406 4.29796875 8.99085937 4.375 10.1875 C4.47941406 11.91033203 4.47941406 11.91033203 4.5859375 13.66796875 C4.97692499 16.8143115 5.792189 19.10125361 7 22 C6.625 24.8125 6.625 24.8125 6 27 C3.78350902 23.67526354 3.04242754 20.84395157 2 17 C1.62875 16.0925 1.2575 15.185 0.875 14.25 C-0.40118359 9.50988952 -0.15628476 4.87955749 0 0 Z " fill="#9F7657" transform="translate(81,101)"/>
<path d="M0 0 C1.65 0 3.3 0 5 0 C4.01 0.495 4.01 0.495 3 1 C3 1.66 3 2.32 3 3 C4.32 3.33 5.64 3.66 7 4 C7.33 5.32 7.66 6.64 8 8 C8.66 8 9.32 8 10 8 C10.33 9.65 10.66 11.3 11 13 C7.4213696 11.34832443 4.25179812 9.21713508 1 7 C1.33 6.34 1.66 5.68 2 5 C1.01 4.67 0.02 4.34 -1 4 C-0.67 2.68 -0.34 1.36 0 0 Z " fill="#5A3F33" transform="translate(115,23)"/>
<path d="M0 0 C0.33 0 0.66 0 1 0 C1.06058594 0.83402344 1.12117187 1.66804687 1.18359375 2.52734375 C1.66828087 9.03706466 2.23091353 15.51769975 3 22 C2.34 22 1.68 22 1 22 C1 22.66 1 23.32 1 24 C0.34 24 -0.32 24 -1 24 C-1.0270491 20.93744039 -1.04686298 17.8751214 -1.0625 14.8125 C-1.07087891 13.94818359 -1.07925781 13.08386719 -1.08789062 12.19335938 C-1.10396812 7.99713231 -1.07559038 4.09063114 0 0 Z " fill="#E6AD9D" transform="translate(164,159)"/>
<path d="M0 0 C0.33 0.66 0.66 1.32 1 2 C-1.2230603 7.03893667 -5.55922904 11.77809708 -10 15 C-12.03125 14.6328125 -12.03125 14.6328125 -14 14 C-16.3396553 14.98511802 -18.67328135 15.98470459 -21 17 C-21.99 16.67 -22.98 16.34 -24 16 C-22.64611467 15.39520315 -21.29187368 14.79120246 -19.9375 14.1875 C-19.1125 13.81367188 -18.2875 13.43984375 -17.4375 13.0546875 C-15 12 -15 12 -11.4375 10.8125 C-6.50472567 8.21158263 -3.46746788 4.2960576 0 0 Z " fill="#AA7C70" transform="translate(163,145)"/>
<path d="M0 0 C0.33 0 0.66 0 1 0 C1 1.65 1 3.3 1 5 C0.34 5 -0.32 5 -1 5 C-1.061875 5.99 -1.12375 6.98 -1.1875 8 C-1.82432306 12.71827991 -4.30728164 16.1745514 -7 20 C-8.33332095 17.3333581 -7.67102033 15.83319697 -7 13 C-7.66 12.67 -8.32 12.34 -9 12 C-8.01 11.67 -7.02 11.34 -6 11 C-4.8310632 8.97361627 -4.8310632 8.97361627 -3.9375 6.5625 C-2.81367045 3.75066945 -2.1627793 2.1627793 0 0 Z " fill="#5C6059" transform="translate(100,150)"/>
<path d="M0 0 C2.02731295 1.66112292 2.93528646 2.46758404 3.2578125 5.12109375 C3.19207031 6.26771484 3.19207031 6.26771484 3.125 7.4375 C2.96779457 10.53444689 3.11675372 13.01734525 4 16 C2.33388095 16.042721 0.66617115 16.04063832 -1 16 C-2 15 -2 15 -2.25 12.125 C-2 9 -2 9 -0.4375 7.5 C0.036875 7.005 0.51125 6.51 1 6 C0.76716851 2.85078091 0.76716851 2.85078091 0 0 Z " fill="#946A5F" transform="translate(89,104)"/>
<path d="M0 0 C0.66 0.99 1.32 1.98 2 3 C0.68 2.67 -0.64 2.34 -2 2 C-2 3.32 -2 4.64 -2 6 C-3.98 6 -5.96 6 -8 6 C-8 5.34 -8 4.68 -8 4 C-8.99 4.66 -9.98 5.32 -11 6 C-11.99 5.67 -12.98 5.34 -14 5 C-10.98552165 2.42924159 -8.64020229 1.47792934 -4.75 0.8125 C-3.85796875 0.65394531 -2.9659375 0.49539062 -2.046875 0.33203125 C-1.37140625 0.22246094 -0.6959375 0.11289063 0 0 Z " fill="#543F35" transform="translate(118,88)"/>
<path d="M0 0 C0 3 0 3 -1.46875 4.80932617 C-2.1390625 5.46392822 -2.809375 6.11853027 -3.5 6.79296875 C-4.221875 7.50517578 -4.94375 8.21738281 -5.6875 8.95117188 C-6.450625 9.68916016 -7.21375 10.42714844 -8 11.1875 C-9.1446875 12.31188477 -9.1446875 12.31188477 -10.3125 13.45898438 C-12.20180839 15.31286823 -14.09775206 17.15941069 -16 19 C-16.66 18.67 -17.32 18.34 -18 18 C-16.12973998 15.93302978 -14.25404816 13.87145703 -12.375 11.8125 C-11.59189453 10.9452832 -11.59189453 10.9452832 -10.79296875 10.06054688 C-7.41255947 6.36713674 -3.91565929 3.12194457 0 0 Z " fill="#D9AC02" transform="translate(46,28)"/>
<path d="M0 0 C1.20628008 2.33214148 2.1654738 4.49642139 3 7 C2.01 7 1.02 7 0 7 C0 7.66 0 8.32 0 9 C-1.875 9.625 -1.875 9.625 -4 10 C-4.66 9.34 -5.32 8.68 -6 8 C-5.625 5.875 -5.625 5.875 -5 4 C-4.01 4 -3.02 4 -2 4 C-2 3.34 -2 2.68 -2 2 C-1.34 2 -0.68 2 0 2 C0 1.34 0 0.68 0 0 Z " fill="#38241B" transform="translate(92,45)"/>
<path d="M0 0 C1.45228118 2.90456237 0.78857198 5.33836571 0.5625 8.5625 C0.474019 14.29017032 1.12864321 17.10902336 5 21.375 C6.30140215 22.6176583 7.62473245 23.839618 9 25 C8.67 25.66 8.34 26.32 8 27 C6.68412059 25.87895467 5.37239647 24.75303035 4.0625 23.625 C3.33160156 22.99851563 2.60070312 22.37203125 1.84765625 21.7265625 C-1.58303109 18.52071936 -1.37393761 15.00672433 -1.6875 10.5625 C-1.74744141 9.88123047 -1.80738281 9.19996094 -1.86914062 8.49804688 C-2.1418634 4.683664 -2.18515658 3.27773487 0 0 Z " fill="#6E5F41" transform="translate(166,140)"/>
<path d="M0 0 C1.32 0 2.64 0 4 0 C3.9175 0.763125 3.835 1.52625 3.75 2.3125 C3.8325 3.199375 3.915 4.08625 4 5 C4.66 5.495 5.32 5.99 6 6.5 C6.66 6.995 7.32 7.49 8 8 C8.25 10.6875 8.25 10.6875 8 13 C6.5 11.625 6.5 11.625 5 10 C5 9.34 5 8.68 5 8 C3.35 8 1.7 8 0 8 C-0.66 6.68 -1.32 5.36 -2 4 C-1.34 4 -0.68 4 0 4 C0 2.68 0 1.36 0 0 Z " fill="#3A251C" transform="translate(164,56)"/>
<path d="M0 0 C0.66 0 1.32 0 2 0 C2 0.66 2 1.32 2 2 C3.32 2.33 4.64 2.66 6 3 C6 4.65 6 6.3 6 8 C4.35 8.33 2.7 8.66 1 9 C-1.14809171 5.77786243 -1.29386153 4.72224599 -1 1 C-0.67 0.67 -0.34 0.34 0 0 Z " fill="#251611" transform="translate(94,43)"/>
<path d="M0 0 C-1.38035493 2.85059343 -2.89296487 5.55880904 -4.5625 8.25 C-4.99691406 8.95640625 -5.43132812 9.6628125 -5.87890625 10.390625 C-6.43384766 11.18726563 -6.43384766 11.18726563 -7 12 C-7.33 12 -7.66 12 -8 12 C-8.43501326 6.77984085 -8.43501326 6.77984085 -8 4 C-5.25787805 1.03554384 -4.06941007 0 0 0 Z " fill="#AC887E" transform="translate(149,227)"/>
<path d="M0 0 C0.68513672 -0.00322266 1.37027344 -0.00644531 2.07617188 -0.00976562 C7.17022414 0.04522414 7.17022414 0.04522414 9.4375 2.3125 C-4.1957574 3.46056378 -4.1957574 3.46056378 -10.5625 3.3125 C-7.86387031 -0.57639982 -4.30740492 -0.10187807 0 0 Z " fill="#B18274" transform="translate(132.5625,126.6875)"/>
<path d="M0 0 C-2.91403262 1.94268841 -5.85808576 3.46395304 -9 5 C-7.68 4.67 -6.36 4.34 -5 4 C-5.33 4.99 -5.66 5.98 -6 7 C-8.31 7 -10.62 7 -13 7 C-12.875 5.25 -12.875 5.25 -12 3 C-7.77059422 -0.63925614 -5.39780754 -1.54223072 0 0 Z " fill="#B88679" transform="translate(114,88)"/>
<path d="M0 0 C0.33 0 0.66 0 1 0 C1.125 2.375 1.125 2.375 1 5 C-1 7 -1 7 -4.125 7.125 C-5.07375 7.08375 -6.0225 7.0425 -7 7 C-7.33 9.64 -7.66 12.28 -8 15 C-9.13732426 11.59598052 -8.83989957 9.22543336 -8.0625 5.75 C-7.86785156 4.85796875 -7.67320312 3.9659375 -7.47265625 3.046875 C-7.31667969 2.37140625 -7.16070312 1.6959375 -7 1 C-3.535 2.485 -3.535 2.485 0 4 C0 2.68 0 1.36 0 0 Z " fill="#9A7352" transform="translate(178,120)"/>
<path d="M0 0 C6.28842188 -0.25153688 10.73149092 0.48766061 16 4 C15.67 4.99 15.34 5.98 15 7 C13.02 7 11.04 7 9 7 C9 6.01 9 5.02 9 4 C6.03 3.01 3.06 2.02 0 1 C0 0.67 0 0.34 0 0 Z " fill="#B68578" transform="translate(146,86)"/>
<path d="M0 0 C2.64 0.33 5.28 0.66 8 1 C8.33 2.32 8.66 3.64 9 5 C7.02 5.33 5.04 5.66 3 6 C3 5.34 3 4.68 3 4 C1.35 3.67 -0.3 3.34 -2 3 C-1.34 2.01 -0.68 1.02 0 0 Z " fill="#3A261D" transform="translate(109,26)"/>
<path d="M0 0 C0.33 0 0.66 0 1 0 C1.02708567 1.60407328 1.04643483 3.2082785 1.0625 4.8125 C1.07410156 5.70582031 1.08570312 6.59914063 1.09765625 7.51953125 C1 10 1 10 0 13 C-0.14403348 14.33363703 -0.24590423 15.67218046 -0.31640625 17.01171875 C-0.35830078 17.76904297 -0.40019531 18.52636719 -0.44335938 19.30664062 C-0.48267578 20.09232422 -0.52199219 20.87800781 -0.5625 21.6875 C-0.62727539 22.88342773 -0.62727539 22.88342773 -0.69335938 24.10351562 C-0.79927368 26.06881447 -0.90012551 28.03438496 -1 30 C-1.33 30 -1.66 30 -2 30 C-2.0588996 26.68757688 -2.09389398 23.37529149 -2.125 20.0625 C-2.14175781 19.13630859 -2.15851563 18.21011719 -2.17578125 17.25585938 C-2.21840994 11.18127038 -1.53224502 5.88164921 0 0 Z " fill="#7B564A" transform="translate(94,66)"/>
<path d="M0 0 C0.33 1.32 0.66 2.64 1 4 C0.01 4 -0.98 4 -2 4 C-2 4.66 -2 5.32 -2 6 C-3.65 6.33 -5.3 6.66 -7 7 C-7.99 5.68 -8.98 4.36 -10 3 C-9.01 2.34 -8.02 1.68 -7 1 C-6.01 1.33 -5.02 1.66 -4 2 C-1.83284443 1.12516085 -1.83284443 1.12516085 0 0 Z " fill="#38241B" transform="translate(116,33)"/>
<path d="M0 0 C1 2 1 2 0.4375 4.375 C-0.06525738 7.39154426 0.40328736 8.46404463 2 11 C1.45859375 10.50886719 0.9171875 10.01773438 0.359375 9.51171875 C-2.57241283 7.6332388 -4.30299691 7.68939275 -7.75 7.8125 C-8.73484375 7.83957031 -9.7196875 7.86664063 -10.734375 7.89453125 C-11.48203125 7.92933594 -12.2296875 7.96414062 -13 8 C-10.89365183 6.90045976 -9.15360554 6.03072111 -6.8125 5.5625 C-6.214375 5.376875 -5.61625 5.19125 -5 5 C-4.67 4.01 -4.34 3.02 -4 2 C-1.9375 0.8125 -1.9375 0.8125 0 0 Z " fill="#5D5C4A" transform="translate(71,185)"/>
<path d="M0 0 C1.65 0 3.3 0 5 0 C5 0.66 5 1.32 5 2 C6.32 2 7.64 2 9 2 C9 2.66 9 3.32 9 4 C4.92630576 6.03684712 2.41062136 6.0257259 -2 5 C-1.34 4.67 -0.68 4.34 0 4 C0 2.68 0 1.36 0 0 Z " fill="#593E31" transform="translate(107,30)"/>
<path d="M0 0 C7.26153846 -0.49230769 7.26153846 -0.49230769 11 2 C11.66 2.66 12.32 3.32 13 4 C10.61435923 3.42415568 8.33317216 2.77772405 6 2 C6 2.66 6 3.32 6 4 C4.02 4 2.04 4 0 4 C0 2.68 0 1.36 0 0 Z " fill="#443429" transform="translate(146,88)"/>
<path d="M0 0 C2.89762005 2.45883758 3.8976495 4.87625073 5.125 8.4375 C5.45757812 9.38496094 5.79015625 10.33242187 6.1328125 11.30859375 C6.84858873 13.53007943 7.47355676 15.72769908 8 18 C7.34 18 6.68 18 6 18 C0 6.52427184 0 6.52427184 0 0 Z " fill="#423A3A" transform="translate(105,182)"/>
<path d="M0 0 C0.33 0.66 0.66 1.32 1 2 C1.99 2 2.98 2 4 2 C4 2.66 4 3.32 4 4 C5.98 4 7.96 4 10 4 C10.33 4.99 10.66 5.98 11 7 C4.70786517 7.36300778 4.70786517 7.36300778 1.5625 5.75 C0 4 0 4 0 0 Z " fill="#8F6156" transform="translate(120,111)"/>
<path d="M0 0 C0.33 0 0.66 0 1 0 C1 3.63 1 7.26 1 11 C0.34 11 -0.32 11 -1 11 C-2.37073786 9.36395804 -3.70055256 7.69321939 -5 6 C-5.98230498 4.9826127 -6.97469597 3.97403883 -8 3 C-4.62537285 3.54723683 -2.91765 4.0549 0 6 C0 4.02 0 2.04 0 0 Z " fill="#CF9B8C" transform="translate(92,96)"/>
<path d="M0 0 C0.33 1.32 0.66 2.64 1 4 C1.66 4 2.32 4 3 4 C3 4.66 3 5.32 3 6 C3.66 6 4.32 6 5 6 C6.20272819 8.40545638 6.10071472 9.94996953 6.0625 12.625 C6.05347656 13.44226563 6.04445312 14.25953125 6.03515625 15.1015625 C6.02355469 15.72804688 6.01195312 16.35453125 6 17 C5.67 17 5.34 17 5 17 C4.731875 15.9275 4.46375 14.855 4.1875 13.75 C3.27361033 10.09775371 3.27361033 10.09775371 1.375 7.9375 C-0.52238091 5.2639178 -0.21787526 3.19550378 0 0 Z " fill="#725044" transform="translate(163,62)"/>
<path d="M0 0 C0.05395478 1.62463842 0.09277195 3.24978541 0.125 4.875 C0.14820313 5.77992188 0.17140625 6.68484375 0.1953125 7.6171875 C0 10 0 10 -2 12 C-2 9 -2 6 -2 3 C-4.64 3 -7.28 3 -10 3 C-10 2.34 -10 1.68 -10 1 C-6.78548731 -0.60725635 -3.56387464 -0.05748185 0 0 Z " fill="#928784" transform="translate(139,229)"/>
<path d="M0 0 C0.99 0.495 0.99 0.495 2 1 C2 1.99 2 2.98 2 4 C2.99 4.33 3.98 4.66 5 5 C3.63016497 8.16115776 3.0109362 8.9927092 0 11 C0 7.37 0 3.74 0 0 Z " fill="#E0A898" transform="translate(86,103)"/>
<path d="M0 0 C0.33 0 0.66 0 1 0 C1.34548714 6.33393082 0.29342747 11.10261508 -2 17 C-2.33 17 -2.66 17 -3 17 C-3 12.71 -3 8.42 -3 4 C-2.34 4.66 -1.68 5.32 -1 6 C-0.67 4.02 -0.34 2.04 0 0 Z " fill="#73563C" transform="translate(182,103)"/>
<path d="M0 0 C1.98 0 3.96 0 6 0 C4 2 4 2 1 3 C0.01 4.485 0.01 4.485 -1 6 C-3.375 6.625 -3.375 6.625 -6 7 C-7.33542939 7.32483418 -8.66961551 7.6550855 -10 8 C-8.25 6 -8.25 6 -6 4 C-4.68 4 -3.36 4 -2 4 C-1.34 2.68 -0.68 1.36 0 0 Z " fill="#4F371C" transform="translate(114,21)"/>
<path d="M0 0 C2.95409701 1.37154504 5.44008376 2.98863724 8 5 C7.67 5.66 7.34 6.32 7 7 C7.39938767 9.09821215 7.39938767 9.09821215 8 11 C2.19794344 5.35475578 2.19794344 5.35475578 0 2 C0 1.34 0 0.68 0 0 Z " fill="#282E33" transform="translate(85,208)"/>
<path d="M0 0 C0.33 0 0.66 0 1 0 C1.13277344 0.68707031 1.26554687 1.37414062 1.40234375 2.08203125 C1.57894531 2.98308594 1.75554687 3.88414063 1.9375 4.8125 C2.11152344 5.70582031 2.28554687 6.59914063 2.46484375 7.51953125 C2.97741153 10.11397171 2.97741153 10.11397171 4 13 C3.5625 15.6875 3.5625 15.6875 3 18 C-0.19702962 13.20445557 -1.22732858 8.15962151 -0.625 2.4375 C-0.41875 1.633125 -0.2125 0.82875 0 0 Z " fill="#83643F" transform="translate(84,110)"/>
<path d="M0 0 C1.65 0 3.3 0 5 0 C5.33 2.31 5.66 4.62 6 7 C5.67 6.01 5.34 5.02 5 4 C3.8553125 5.175625 3.8553125 5.175625 2.6875 6.375 C0 9 0 9 -3 11 C-1.68775452 7.06326356 -0.08089673 4.77280706 3 2 C2.01 1.34 1.02 0.68 0 0 Z " fill="#7B5B42" transform="translate(176,95)"/>
<path d="M0 0 C-0.5775 0.12375 -1.155 0.2475 -1.75 0.375 C-4.03276234 1.00910065 -5.91447201 1.88771841 -8 3 C-11.20062687 4.60031344 -13.72271806 3.03173691 -17 2 C-17 1.67 -17 1.34 -17 1 C-10.70198983 -0.90128609 -6.48184148 -0.97839117 0 0 Z " fill="#906B61" transform="translate(133,47)"/>
<path d="M0 0 C2.0625 2.3125 2.0625 2.3125 4 5 C3.1654738 7.50357861 2.20628008 9.66785852 1 12 C0.67 12 0.34 12 0 12 C0 8.04 0 4.08 0 0 Z " fill="#947445" transform="translate(99,139)"/>
<path d="M0 0 C3.34373475 0.55728913 6.03312999 1.35173889 9 3 C9 3.66 9 4.32 9 5 C2.375 4.25 2.375 4.25 -1 2 C-0.67 1.34 -0.34 0.68 0 0 Z " fill="#595C52" transform="translate(219,205)"/>
<path d="M0 0 C0.78375 0.04125 1.5675 0.0825 2.375 0.125 C-0.43304268 3.08904505 -2.80815774 5.56999019 -6.625 7.125 C-4.07142857 0.19387755 -4.07142857 0.19387755 0 0 Z " fill="#595C54" transform="translate(89.625,163.875)"/>
<path d="M0 0 C0.33 0 0.66 0 1 0 C1.3125 2.3125 1.3125 2.3125 1 5 C-1.25 6.875 -1.25 6.875 -4 8 C-6.3125 7.6875 -6.3125 7.6875 -8 7 C-7.67 6.34 -7.34 5.68 -7 5 C-5.35 5 -3.7 5 -2 5 C-2 4.34 -2 3.68 -2 3 C-1.34 3 -0.68 3 0 3 C0 2.01 0 1.02 0 0 Z " fill="#8F6155" transform="translate(143,110)"/>
<path d="M0 0 C0.66 0.33 1.32 0.66 2 1 C2.625 4.0625 2.625 4.0625 3 7 C0.69 6.67 -1.62 6.34 -4 6 C-4 5.34 -4 4.68 -4 4 C-2.68 3.67 -1.36 3.34 0 3 C0 2.01 0 1.02 0 0 Z " fill="#583E28" transform="translate(170,42)"/>
<path d="M0 0 C0 2.66666667 0 5.33333333 0 8 C-2.97 7.505 -2.97 7.505 -6 7 C-4.60667426 3.63279613 -3.0210714 2.0140476 0 0 Z " fill="#775737" transform="translate(99,32)"/>
<path d="M0 0 C4.29 0 8.58 0 13 0 C12.67 0.99 12.34 1.98 12 3 C10.56344146 3.08131463 9.1255517 3.13933559 7.6875 3.1875 C6.48673828 3.23970703 6.48673828 3.23970703 5.26171875 3.29296875 C3 3 3 3 0 0 Z " fill="#D0D1D1" transform="translate(146,224)"/>
<path d="M0 0 C0.66 1.32 1.32 2.64 2 4 C0.35 5.65 -1.3 7.3 -3 9 C-3.99 8.67 -4.98 8.34 -6 8 C-4.02 5.36 -2.04 2.72 0 0 Z " fill="#403A3B" transform="translate(164,207)"/>
<path d="M0 0 C1.58409994 0.11487748 3.16728963 0.24234508 4.75 0.375 C6.07257813 0.47941406 6.07257813 0.47941406 7.421875 0.5859375 C10 1 10 1 14 3 C9.38 3 4.76 3 0 3 C0 2.01 0 1.02 0 0 Z " fill="#5B5C50" transform="translate(199,200)"/>
<path d="M0 0 C2.475 0.99 2.475 0.99 5 2 C4.67 4.31 4.34 6.62 4 9 C1 9 1 9 -1 8 C-0.34 7.34 0.32 6.68 1 6 C1.6425235 3.93125966 1.6425235 3.93125966 2 2 C1.34 2 0.68 2 0 2 C0 1.34 0 0.68 0 0 Z " fill="#565645" transform="translate(197,187)"/>
<path d="M0 0 C3.96 0 7.92 0 12 0 C12 0.99 12 1.98 12 3 C10.02 3.33 8.04 3.66 6 4 C6.33 3.34 6.66 2.68 7 2 C4.69 1.67 2.38 1.34 0 1 C0 0.67 0 0.34 0 0 Z " fill="#B38073" transform="translate(104,83)"/>
<path d="M0 0 C0.598125 0.20625 1.19625 0.4125 1.8125 0.625 C0.19655168 2.66619788 -1.4731382 4.66572937 -3.1875 6.625 C-3.8475 6.625 -4.5075 6.625 -5.1875 6.625 C-5.375 4.25 -5.375 4.25 -5.1875 1.625 C-2.1875 -0.375 -2.1875 -0.375 0 0 Z " fill="#DEA799" transform="translate(178.1875,96.375)"/>
<path d="M0 0 C0.99 0.33 1.98 0.66 3 1 C3 1.66 3 2.32 3 3 C3.66 3.33 4.32 3.66 5 4 C4.01 4.33 3.02 4.66 2 5 C1.26676204 7.01508358 1.26676204 7.01508358 1 9 C0.67 9 0.34 9 0 9 C0 6.03 0 3.06 0 0 Z " fill="#5D4331" transform="translate(171,93)"/>
<path d="M0 0 C1.75 0.0625 1.75 0.0625 4 1 C5.59501537 3.24164322 6.74543018 5.53566643 8 8 C7.01 8.495 7.01 8.495 6 9 C5.62875 8.1028125 5.62875 8.1028125 5.25 7.1875 C3.83555909 4.71222841 2.27139812 3.66569196 0 2 C0 1.34 0 0.68 0 0 Z " fill="#E6AC9C" transform="translate(118,197)"/>
<path d="M0 0 C0.66 0 1.32 0 2 0 C1.67 0.99 1.34 1.98 1 3 C-3.62 3 -8.24 3 -13 3 C-9.35969176 1.17984588 -8.52320204 0.76345206 -4.8125 0.9375 C-2.9253125 0.9684375 -2.9253125 0.9684375 -1 1 C-0.67 0.67 -0.34 0.34 0 0 Z " fill="#8E6A5F" transform="translate(149,128)"/>
<path d="M0 0 C0 0.99 0 1.98 0 3 C-2.64 3.33 -5.28 3.66 -8 4 C-6.68 3.67 -5.36 3.34 -4 3 C-4 2.34 -4 1.68 -4 1 C-5.32 0.67 -6.64 0.34 -8 0 C-4.94736336 -0.98120464 -3.05263664 -0.98120464 0 0 Z " fill="#60461F" transform="translate(149,20)"/>
<path d="M0 0 C0.99 0.33 1.98 0.66 3 1 C3 1.66 3 2.32 3 3 C0.6875 4.6875 0.6875 4.6875 -2 6 C-2.99 5.67 -3.98 5.34 -5 5 C-3.35 3.35 -1.7 1.7 0 0 Z " fill="#60604D" transform="translate(77,180)"/>
<path d="M0 0 C0.33 0.66 0.66 1.32 1 2 C2.98 1.67 4.96 1.34 7 1 C7.33 1.99 7.66 2.98 8 4 C5.36 4 2.72 4 0 4 C-0.33 3.01 -0.66 2.02 -1 1 C-0.67 0.67 -0.34 0.34 0 0 Z " fill="#A37467" transform="translate(121,109)"/>
<path d="M0 0 C2.0625 0.4375 2.0625 0.4375 4 1 C3.071875 1.4021875 3.071875 1.4021875 2.125 1.8125 C-0.2995233 2.95556848 -0.2995233 2.95556848 -2 6 C-2.66 6 -3.32 6 -4 6 C-4.66 4.68 -5.32 3.36 -6 2 C-4.7934375 1.7834375 -4.7934375 1.7834375 -3.5625 1.5625 C-1.07896294 1.25864751 -1.07896294 1.25864751 0 0 Z " fill="#946357" transform="translate(136,111)"/>
<path d="M0 0 C1.32 0 2.64 0 4 0 C4 2.97 4 5.94 4 9 C3.01 9.33 2.02 9.66 1 10 C1.33 7.36 1.66 4.72 2 2 C1.01 1.67 0.02 1.34 -1 1 C-0.67 0.67 -0.34 0.34 0 0 Z " fill="#36221A" transform="translate(135,29)"/>
<path d="M0 0 C2.97 0.495 2.97 0.495 6 1 C4.6875 3.5 4.6875 3.5 3 6 C2.01 6 1.02 6 0 6 C0 5.01 0 4.02 0 3 C0.99 3 1.98 3 3 3 C3 2.34 3 1.68 3 1 C2.01 0.67 1.02 0.34 0 0 Z " fill="#301E17" transform="translate(159,41)"/>
<path d="M0 0 C0.99 0.33 1.98 0.66 3 1 C2.01 2.32 1.02 3.64 0 5 C-1.32 4.34 -2.64 3.68 -4 3 C-2.1875 1.4375 -2.1875 1.4375 0 0 Z " fill="#E1A99A" transform="translate(102,84)"/>
<path d="M0 0 C-4.625 4.875 -4.625 4.875 -8 6 C-8 3 -8 3 -6.8125 1.3125 C-4.44258278 -0.40364695 -2.85974334 -0.23187108 0 0 Z " fill="#553A2F" transform="translate(98,40)"/>
<path d="M0 0 C3.63 0 7.26 0 11 0 C11 0.33 11 0.66 11 1 C7.04 1.66 3.08 2.32 -1 3 C-0.67 2.01 -0.34 1.02 0 0 Z " fill="#FAFAFA" transform="translate(145,225)"/>
<path d="M0 0 C0.33 0 0.66 0 1 0 C1 1.65 1 3.3 1 5 C0.01 5 -0.98 5 -2 5 C-2.33 5.99 -2.66 6.98 -3 8 C-3.33 7.34 -3.66 6.68 -4 6 C-1.68421053 1.68421053 -1.68421053 1.68421053 0 0 Z " fill="#62583D" transform="translate(100,150)"/>
<path d="M0 0 C1.0625 1.8125 1.0625 1.8125 2 4 C1.67 4.99 1.34 5.98 1 7 C-0.37562854 5.71034824 -1.70766393 4.37310707 -3 3 C-3 2.34 -3 1.68 -3 1 C-2.01 0.67 -1.02 0.34 0 0 Z " fill="#E0A797" transform="translate(177,104)"/>
<path d="M0 0 C0.66 0 1.32 0 2 0 C2 0.99 2 1.98 2 3 C3.98 3 5.96 3 8 3 C8 3.33 8 3.66 8 4 C5.03 4 2.06 4 -1 4 C-1 1 -1 1 0 0 Z " fill="#C4A69D" transform="translate(144,89)"/>
<path d="M0 0 C0 0.66 0 1.32 0 2 C-2.375 3.0625 -2.375 3.0625 -5 4 C-5.66 3.67 -6.32 3.34 -7 3 C-7 2.34 -7 1.68 -7 1 C-4.53721199 -0.231394 -2.7204945 -0.07159196 0 0 Z " fill="#50362B" transform="translate(116,32)"/>
<path d="M0 0 C0.66 0 1.32 0 2 0 C2 2.31 2 4.62 2 7 C1.01 7.33 0.02 7.66 -1 8 C-0.67 5.36 -0.34 2.72 0 0 Z " fill="#C8C8C8" transform="translate(139,233)"/>
<path d="M0 0 C0.33 0 0.66 0 1 0 C1 1.65 1 3.3 1 5 C1.66 5 2.32 5 3 5 C3 5.66 3 6.32 3 7 C2.01 7.33 1.02 7.66 0 8 C-0.33 7.67 -0.66 7.34 -1 7 C-0.71269945 4.66055264 -0.38063221 2.3260857 0 0 Z " fill="#625F43" transform="translate(82,171)"/>
<path d="M0 0 C1.65 0 3.3 0 5 0 C5 0.99 5 1.98 5 3 C3.02 3 1.04 3 -1 3 C-0.67 2.01 -0.34 1.02 0 0 Z " fill="#412B21" transform="translate(140,39)"/>
<path d="M0 0 C0.66 0 1.32 0 2 0 C2 0.66 2 1.32 2 2 C2.99 2.33 3.98 2.66 5 3 C5 3.66 5 4.32 5 5 C2 6 2 6 -0.1875 5.0625 C-0.785625 4.711875 -1.38375 4.36125 -2 4 C-1.01 3.67 -0.02 3.34 1 3 C0.67 2.01 0.34 1.02 0 0 Z " fill="#38241B" transform="translate(100,36)"/>
<path d="M0 0 C2 3 2 3 2 7 C1.01 7 0.02 7 -1 7 C-1.625 4.625 -1.625 4.625 -2 2 C-1.34 1.34 -0.68 0.68 0 0 Z " fill="#54392E" transform="translate(100,33)"/>
<path d="M0 0 C0.66 0.33 1.32 0.66 2 1 C2 2.32 2 3.64 2 5 C2.66 5 3.32 5 4 5 C3.67 5.99 3.34 6.98 3 8 C2.34 8 1.68 8 1 8 C1 6.68 1 5.36 1 4 C0.34 3.67 -0.32 3.34 -1 3 C-0.67 2.01 -0.34 1.02 0 0 Z " fill="#4A3227" transform="translate(145,27)"/>
</svg>
